<svg width="95" height="94" viewBox="0 0 95 94" fill="none" xmlns="http://www.w3.org/2000/svg">
<rect x="0.00195312" width="94" height="94" rx="15" fill="#F37024"/>
<path d="M57.0257 16.3767C57.7017 16.8692 58.3776 17.3617 59.1063 17.8931C58.1489 19.3229 57.1941 20.7502 56.2279 22.1938C61.0651 25.5836 63.6834 30.177 64.0704 35.9275C64.9725 35.7592 65.8645 35.4639 66.7628 35.4501C69.6689 35.4049 72.0561 37.7116 72.0875 40.6441C72.1415 45.6333 72.1591 50.6249 72.0837 55.6141C72.0259 59.4135 68.1675 61.8434 64.6383 60.4098C64.4774 60.3445 64.3166 60.2779 64.0628 60.1723C64.0628 60.8018 64.0666 61.3571 64.0616 61.9112C64.039 64.517 62.3943 66.1629 59.7973 66.1805C59.4594 66.183 59.1214 66.1805 58.7131 66.1805C58.7131 66.7559 58.7131 67.2723 58.7131 67.7887C58.7131 69.4383 58.7181 71.0892 58.7118 72.7389C58.7018 75.7982 56.4025 78.1854 53.4538 78.203C50.402 78.2218 48.0362 75.8975 47.9947 72.8004C47.9671 70.7487 47.9897 68.6958 47.9872 66.6428C47.9872 66.5235 47.9746 66.4041 47.9645 66.2332C47.1039 66.2332 46.2571 66.2332 45.3424 66.2332C45.3424 66.4996 45.3437 66.7358 45.3424 66.9707C45.3336 69.0626 45.3789 71.1571 45.3035 73.2477C45.2042 75.9942 42.8296 78.1892 40.053 78.2017C37.2148 78.2143 34.8088 76.0771 34.6844 73.3105C34.5901 71.2023 34.6454 69.0865 34.6341 66.9745C34.6329 66.737 34.6341 66.5008 34.6341 66.1692C32.9518 66.2697 31.4014 66.1164 30.2392 64.7683C29.0896 63.434 29.273 61.8195 29.2693 60.3621C28.2855 60.5179 27.3482 60.7842 26.4097 60.7905C23.6607 60.8081 21.2936 58.4171 21.2823 55.6593C21.2622 50.6689 21.261 45.6785 21.2811 40.6893C21.2961 36.9188 25.1734 34.3771 28.6662 35.8207C28.8471 35.8949 29.028 35.9715 29.2718 36.0733C29.6688 30.2097 32.2658 25.6188 37.0941 22.2202C36.1405 20.7979 35.1857 19.3719 34.2195 17.9296C34.957 17.3969 35.6644 16.8868 36.3717 16.3754C36.4119 16.3754 36.4521 16.3754 36.4923 16.3754C37.4698 17.8856 38.4485 19.3945 39.4373 20.9211C44.2707 18.8593 49.0538 18.8606 53.8483 20.8846C54.6461 19.6986 55.4238 18.5527 56.1877 17.3969C56.4051 17.0689 56.586 16.7159 56.7832 16.3741C56.8649 16.3767 56.9453 16.3767 57.0257 16.3767ZM61.3754 38.1438C51.5491 38.1438 41.7981 38.1438 31.9944 38.1438C31.9944 38.3763 31.9944 38.5735 31.9944 38.7708C31.9944 46.4374 31.9944 54.1039 31.9944 61.7705C31.9944 63.0847 32.4027 63.4817 33.7396 63.4817C34.9193 63.4817 36.1003 63.4817 37.3304 63.4817C37.3304 63.777 37.3304 63.9931 37.3304 64.2104C37.3304 67.0675 37.2989 69.9258 37.3567 72.7829C37.368 73.3646 37.6093 74.0141 37.9397 74.5004C38.5767 75.4401 39.7841 75.7379 40.847 75.3761C41.92 75.0117 42.6487 74.0179 42.6525 72.8469C42.6638 69.9497 42.6562 67.0511 42.6562 64.1539C42.6562 63.9416 42.6562 63.7305 42.6562 63.5332C45.3889 63.5332 48.0311 63.5332 50.7136 63.5332C50.7136 63.8649 50.7136 64.1438 50.7136 64.424C50.7148 67.261 50.696 70.0992 50.7249 72.9361C50.7412 74.6134 52.2539 75.7831 53.8985 75.4515C55.2115 75.1864 56.0294 74.1259 56.0344 72.6346C56.0445 69.8177 56.0369 66.9996 56.0369 64.1828C56.0369 63.9679 56.0369 63.7531 56.0369 63.4817C57.2519 63.4817 58.3939 63.4817 59.536 63.4817C60.9683 63.4817 61.3754 63.0809 61.3754 61.6687C61.3741 54.6052 61.3741 47.5417 61.3729 40.4795C61.3754 39.7169 61.3754 38.9555 61.3754 38.1438ZM61.2435 35.3823C60.9595 29.5551 55.8736 22.3433 47.1077 22.0807C38.4021 21.8219 32.5045 28.7585 32.0924 35.3823C41.7994 35.3823 51.5038 35.3823 61.2435 35.3823ZM29.2529 48.1385C29.2529 45.6647 29.258 43.1921 29.2517 40.7182C29.2479 39.2671 28.0983 38.1212 26.6497 38.1087C25.1106 38.0948 23.9522 39.301 23.9472 40.9607C23.9371 44.299 23.9434 47.6372 23.9434 50.9755C23.9434 52.4631 23.9195 53.9519 23.9522 55.4395C23.9861 57.0037 25.2161 58.1998 26.6811 58.1495C28.1787 58.0993 29.2529 56.9446 29.2542 55.3779C29.2542 52.9644 29.2529 50.5521 29.2529 48.1385ZM64.1131 48.1385C64.1106 48.1385 64.1093 48.1385 64.1068 48.1385C64.1068 50.5106 64.0968 52.884 64.1156 55.256C64.1194 55.6895 64.1558 56.1544 64.3141 56.5501C64.7476 57.6419 65.9914 58.3078 67.0958 58.1131C68.4313 57.8782 69.3309 56.922 69.3686 55.6179C69.4051 54.3728 69.385 53.1252 69.385 51.8788C69.3862 48.2403 69.3774 44.6005 69.39 40.9619C69.3937 39.8375 68.9791 38.9643 67.9778 38.4253C66.2427 37.4893 64.1571 38.6791 64.1231 40.6604C64.0804 43.1519 64.1131 45.6458 64.1131 48.1385Z" fill="white"/>
<path d="M52.0439 31.3907C52.0439 30.4937 52.0439 29.6393 52.0439 28.7485C52.9347 28.7485 53.7878 28.7485 54.6799 28.7485C54.6799 29.6305 54.6799 30.4861 54.6799 31.3907C53.8243 31.3907 52.9687 31.3907 52.0439 31.3907Z" fill="white"/>
<path d="M41.2973 28.7585C41.2973 29.6594 41.2973 30.5137 41.2973 31.402C40.4178 31.402 39.5697 31.402 38.689 31.402C38.689 30.5112 38.689 29.6569 38.689 28.7585C39.5458 28.7585 40.3952 28.7585 41.2973 28.7585Z" fill="white"/>
</svg>
