<svg width="292" height="191" viewBox="0 0 292 191" fill="none" xmlns="http://www.w3.org/2000/svg">
<path d="M1.29 152.18C0.99 152.18 0.715 152.13 0.465 152.03L0.675 151.145C0.875 151.225 1.065 151.265 1.245 151.265C1.645 151.265 1.985 151.115 2.265 150.815C2.545 150.515 2.77 150.11 2.94 149.6L3.12 149.045L0.18 141.725H1.305L2.865 145.895L3.585 147.935H3.645C3.785 147.515 3.93 147.055 4.08 146.555L4.275 145.895L5.64 141.725H6.705L3.945 149.675C3.665 150.455 3.315 151.065 2.895 151.505C2.485 151.955 1.95 152.18 1.29 152.18ZM10.8908 149.18C10.2908 149.18 9.73582 149.03 9.22582 148.73C8.71582 148.42 8.30582 147.98 7.99582 147.41C7.69582 146.83 7.54582 146.15 7.54582 145.37C7.54582 144.59 7.69582 143.91 7.99582 143.33C8.30582 142.75 8.71582 142.31 9.22582 142.01C9.73582 141.7 10.2908 141.545 10.8908 141.545C11.4908 141.545 12.0458 141.7 12.5558 142.01C13.0658 142.31 13.4708 142.75 13.7708 143.33C14.0808 143.91 14.2358 144.59 14.2358 145.37C14.2358 146.15 14.0808 146.83 13.7708 147.41C13.4708 147.98 13.0658 148.42 12.5558 148.73C12.0458 149.03 11.4908 149.18 10.8908 149.18ZM10.8908 148.265C11.3208 148.265 11.7008 148.145 12.0308 147.905C12.3708 147.665 12.6358 147.325 12.8258 146.885C13.0158 146.445 13.1108 145.94 13.1108 145.37C13.1108 144.8 13.0158 144.295 12.8258 143.855C12.6358 143.415 12.3708 143.075 12.0308 142.835C11.7008 142.585 11.3208 142.46 10.8908 142.46C10.4608 142.46 10.0758 142.585 9.73582 142.835C9.40582 143.075 9.14582 143.415 8.95582 143.855C8.77582 144.295 8.68582 144.8 8.68582 145.37C8.68582 146.24 8.89082 146.94 9.30082 147.47C9.71082 148 10.2408 148.265 10.8908 148.265ZM18.3164 149.18C17.5664 149.18 17.0114 148.945 16.6514 148.475C16.2914 147.995 16.1114 147.285 16.1114 146.345V141.725H17.1914V146.21C17.1914 146.91 17.3064 147.425 17.5364 147.755C17.7664 148.075 18.1364 148.235 18.6464 148.235C19.0164 148.235 19.3514 148.135 19.6514 147.935C19.9614 147.735 20.3064 147.405 20.6864 146.945V141.725H21.7814V149H20.8664L20.7764 147.845H20.7314C20.3614 148.275 19.9814 148.605 19.5914 148.835C19.2114 149.065 18.7864 149.18 18.3164 149.18ZM27.3199 138.29H28.3999V141.26L28.3699 142.79C28.7699 142.39 29.1599 142.085 29.5399 141.875C29.9199 141.655 30.3399 141.545 30.7999 141.545C31.5599 141.545 32.1199 141.785 32.4799 142.265C32.8399 142.735 33.0199 143.44 33.0199 144.38V149H31.9249V144.515C31.9249 143.815 31.8099 143.305 31.5799 142.985C31.3599 142.665 30.9949 142.505 30.4849 142.505C30.1249 142.505 29.7899 142.6 29.4799 142.79C29.1699 142.97 28.8099 143.265 28.3999 143.675V149H27.3199V138.29ZM37.0705 149.18C36.4505 149.18 35.9405 149 35.5405 148.64C35.1405 148.28 34.9405 147.775 34.9405 147.125C34.9405 146.335 35.3005 145.73 36.0205 145.31C36.7405 144.88 37.8905 144.58 39.4705 144.41C39.4705 143.84 39.3505 143.375 39.1105 143.015C38.8805 142.645 38.4805 142.46 37.9105 142.46C37.2205 142.46 36.4855 142.725 35.7055 143.255L35.2705 142.505C36.2305 141.865 37.1705 141.545 38.0905 141.545C38.9305 141.545 39.5505 141.81 39.9505 142.34C40.3505 142.86 40.5505 143.58 40.5505 144.5V149H39.6505L39.5605 148.115H39.5155C38.6555 148.825 37.8405 149.18 37.0705 149.18ZM37.3555 148.295C37.7055 148.295 38.0455 148.215 38.3755 148.055C38.7155 147.885 39.0805 147.625 39.4705 147.275V145.145C38.2205 145.295 37.3305 145.525 36.8005 145.835C36.2805 146.145 36.0205 146.555 36.0205 147.065C36.0205 147.475 36.1455 147.785 36.3955 147.995C36.6455 148.195 36.9655 148.295 37.3555 148.295ZM41.8402 141.725H42.9652L44.4052 145.97L45.0952 148.1H45.1552L45.8452 145.97L47.2852 141.725H48.3652L45.7552 149H44.4952L41.8402 141.725ZM55.326 144.95C55.326 145.21 55.311 145.43 55.281 145.61H50.256C50.306 146.46 50.566 147.12 51.036 147.59C51.516 148.06 52.101 148.295 52.791 148.295C53.431 148.295 54.046 148.1 54.636 147.71L55.041 148.43C54.681 148.66 54.311 148.845 53.931 148.985C53.551 149.115 53.126 149.18 52.656 149.18C52.016 149.18 51.431 149.03 50.901 148.73C50.381 148.42 49.966 147.975 49.656 147.395C49.356 146.815 49.206 146.14 49.206 145.37C49.206 144.61 49.356 143.94 49.656 143.36C49.966 142.78 50.371 142.335 50.871 142.025C51.371 141.705 51.901 141.545 52.461 141.545C53.361 141.545 54.061 141.85 54.561 142.46C55.071 143.06 55.326 143.89 55.326 144.95ZM54.351 144.815C54.351 144.045 54.186 143.455 53.856 143.045C53.526 142.635 53.066 142.43 52.476 142.43C51.936 142.43 51.456 142.635 51.036 143.045C50.616 143.455 50.366 144.045 50.286 144.815H54.351ZM62.9817 149.18C62.3417 149.18 61.7617 149.03 61.2417 148.73C60.7317 148.42 60.3267 147.98 60.0267 147.41C59.7367 146.84 59.5917 146.16 59.5917 145.37C59.5917 144.59 59.7467 143.91 60.0567 143.33C60.3767 142.75 60.8017 142.31 61.3317 142.01C61.8617 141.7 62.4367 141.545 63.0567 141.545C63.8467 141.545 64.5517 141.835 65.1717 142.415L64.6017 143.135C64.3617 142.915 64.1217 142.75 63.8817 142.64C63.6417 142.52 63.3817 142.46 63.1017 142.46C62.6517 142.46 62.2467 142.585 61.8867 142.835C61.5267 143.075 61.2417 143.415 61.0317 143.855C60.8317 144.295 60.7317 144.8 60.7317 145.37C60.7317 146.24 60.9467 146.94 61.3767 147.47C61.8067 148 62.3717 148.265 63.0717 148.265C63.7017 148.265 64.2917 148.015 64.8417 147.515L65.3217 148.25C64.9917 148.54 64.6267 148.77 64.2267 148.94C63.8267 149.1 63.4117 149.18 62.9817 149.18ZM69.4553 149.18C68.8553 149.18 68.3003 149.03 67.7903 148.73C67.2803 148.42 66.8703 147.98 66.5603 147.41C66.2603 146.83 66.1103 146.15 66.1103 145.37C66.1103 144.59 66.2603 143.91 66.5603 143.33C66.8703 142.75 67.2803 142.31 67.7903 142.01C68.3003 141.7 68.8553 141.545 69.4553 141.545C70.0553 141.545 70.6103 141.7 71.1203 142.01C71.6303 142.31 72.0353 142.75 72.3353 143.33C72.6453 143.91 72.8003 144.59 72.8003 145.37C72.8003 146.15 72.6453 146.83 72.3353 147.41C72.0353 147.98 71.6303 148.42 71.1203 148.73C70.6103 149.03 70.0553 149.18 69.4553 149.18ZM69.4553 148.265C69.8853 148.265 70.2653 148.145 70.5953 147.905C70.9353 147.665 71.2003 147.325 71.3903 146.885C71.5803 146.445 71.6753 145.94 71.6753 145.37C71.6753 144.8 71.5803 144.295 71.3903 143.855C71.2003 143.415 70.9353 143.075 70.5953 142.835C70.2653 142.585 69.8853 142.46 69.4553 142.46C69.0253 142.46 68.6403 142.585 68.3003 142.835C67.9703 143.075 67.7103 143.415 67.5203 143.855C67.3403 144.295 67.2503 144.8 67.2503 145.37C67.2503 146.24 67.4553 146.94 67.8653 147.47C68.2753 148 68.8053 148.265 69.4553 148.265ZM74.7809 141.725H75.6809L75.7709 142.805H75.8159C76.5859 141.965 77.3409 141.545 78.0809 141.545C79.1109 141.545 79.7809 142.015 80.0909 142.955C80.5109 142.495 80.9159 142.145 81.3059 141.905C81.6959 141.665 82.0959 141.545 82.5059 141.545C83.9759 141.545 84.7109 142.49 84.7109 144.38V149H83.6159V144.515C83.6159 143.815 83.5009 143.305 83.2709 142.985C83.0409 142.665 82.6809 142.505 82.1909 142.505C81.6209 142.505 80.9859 142.895 80.2859 143.675V149H79.1909V144.515C79.1909 143.825 79.0759 143.32 78.8459 143C78.6159 142.67 78.2609 142.505 77.7809 142.505C77.2109 142.505 76.5709 142.895 75.8609 143.675V149H74.7809V141.725ZM92.7088 144.95C92.7088 145.21 92.6938 145.43 92.6638 145.61H87.6388C87.6888 146.46 87.9488 147.12 88.4188 147.59C88.8988 148.06 89.4838 148.295 90.1738 148.295C90.8138 148.295 91.4288 148.1 92.0188 147.71L92.4238 148.43C92.0638 148.66 91.6938 148.845 91.3138 148.985C90.9338 149.115 90.5088 149.18 90.0388 149.18C89.3988 149.18 88.8138 149.03 88.2838 148.73C87.7638 148.42 87.3488 147.975 87.0388 147.395C86.7388 146.815 86.5888 146.14 86.5888 145.37C86.5888 144.61 86.7388 143.94 87.0388 143.36C87.3488 142.78 87.7538 142.335 88.2538 142.025C88.7538 141.705 89.2838 141.545 89.8438 141.545C90.7438 141.545 91.4438 141.85 91.9438 142.46C92.4538 143.06 92.7088 143.89 92.7088 144.95ZM91.7338 144.815C91.7338 144.045 91.5688 143.455 91.2388 143.045C90.9088 142.635 90.4488 142.43 89.8588 142.43C89.3188 142.43 88.8388 142.635 88.4188 143.045C87.9988 143.455 87.7488 144.045 87.6688 144.815H91.7338ZM99.7495 149.18C99.0295 149.18 98.5145 148.975 98.2045 148.565C97.8945 148.155 97.7395 147.57 97.7395 146.81V142.625H96.6445V141.8L97.7845 141.725L97.9195 139.67H98.8345V141.725H100.83V142.625H98.8345V146.84C98.8345 147.32 98.9195 147.68 99.0895 147.92C99.2695 148.16 99.5695 148.28 99.9895 148.28C100.2 148.28 100.48 148.215 100.83 148.085L101.055 148.91C100.515 149.09 100.08 149.18 99.7495 149.18ZM105.095 149.18C104.495 149.18 103.94 149.03 103.43 148.73C102.92 148.42 102.51 147.98 102.2 147.41C101.9 146.83 101.75 146.15 101.75 145.37C101.75 144.59 101.9 143.91 102.2 143.33C102.51 142.75 102.92 142.31 103.43 142.01C103.94 141.7 104.495 141.545 105.095 141.545C105.695 141.545 106.25 141.7 106.76 142.01C107.27 142.31 107.675 142.75 107.975 143.33C108.285 143.91 108.44 144.59 108.44 145.37C108.44 146.15 108.285 146.83 107.975 147.41C107.675 147.98 107.27 148.42 106.76 148.73C106.25 149.03 105.695 149.18 105.095 149.18ZM105.095 148.265C105.525 148.265 105.905 148.145 106.235 147.905C106.575 147.665 106.84 147.325 107.03 146.885C107.22 146.445 107.315 145.94 107.315 145.37C107.315 144.8 107.22 144.295 107.03 143.855C106.84 143.415 106.575 143.075 106.235 142.835C105.905 142.585 105.525 142.46 105.095 142.46C104.665 142.46 104.28 142.585 103.94 142.835C103.61 143.075 103.35 143.415 103.16 143.855C102.98 144.295 102.89 144.8 102.89 145.37C102.89 146.24 103.095 146.94 103.505 147.47C103.915 148 104.445 148.265 105.095 148.265ZM115.628 149.18C114.908 149.18 114.393 148.975 114.083 148.565C113.773 148.155 113.618 147.57 113.618 146.81V142.625H112.523V141.8L113.663 141.725L113.798 139.67H114.713V141.725H116.708V142.625H114.713V146.84C114.713 147.32 114.798 147.68 114.968 147.92C115.148 148.16 115.448 148.28 115.868 148.28C116.078 148.28 116.358 148.215 116.708 148.085L116.933 148.91C116.393 149.09 115.958 149.18 115.628 149.18ZM118.389 138.29H119.469V141.26L119.439 142.79C119.839 142.39 120.229 142.085 120.609 141.875C120.989 141.655 121.409 141.545 121.869 141.545C122.629 141.545 123.189 141.785 123.549 142.265C123.909 142.735 124.089 143.44 124.089 144.38V149H122.994V144.515C122.994 143.815 122.879 143.305 122.649 142.985C122.429 142.665 122.064 142.505 121.554 142.505C121.194 142.505 120.859 142.6 120.549 142.79C120.239 142.97 119.879 143.265 119.469 143.675V149H118.389V138.29ZM132.04 144.95C132.04 145.21 132.025 145.43 131.995 145.61H126.97C127.02 146.46 127.28 147.12 127.75 147.59C128.23 148.06 128.815 148.295 129.505 148.295C130.145 148.295 130.76 148.1 131.35 147.71L131.755 148.43C131.395 148.66 131.025 148.845 130.645 148.985C130.265 149.115 129.84 149.18 129.37 149.18C128.73 149.18 128.145 149.03 127.615 148.73C127.095 148.42 126.68 147.975 126.37 147.395C126.07 146.815 125.92 146.14 125.92 145.37C125.92 144.61 126.07 143.94 126.37 143.36C126.68 142.78 127.085 142.335 127.585 142.025C128.085 141.705 128.615 141.545 129.175 141.545C130.075 141.545 130.775 141.85 131.275 142.46C131.785 143.06 132.04 143.89 132.04 144.95ZM131.065 144.815C131.065 144.045 130.9 143.455 130.57 143.045C130.24 142.635 129.78 142.43 129.19 142.43C128.65 142.43 128.17 142.635 127.75 143.045C127.33 143.455 127.08 144.045 127 144.815H131.065ZM136.876 141.725H137.776L137.866 143.06H137.911C138.161 142.59 138.466 142.22 138.826 141.95C139.186 141.68 139.571 141.545 139.981 141.545C140.271 141.545 140.521 141.595 140.731 141.695L140.521 142.655C140.261 142.575 140.031 142.535 139.831 142.535C139.491 142.535 139.151 142.675 138.811 142.955C138.481 143.235 138.196 143.67 137.956 144.26V149H136.876V141.725ZM141.973 141.725H143.053V149H141.973V141.725ZM142.528 140.165C142.308 140.165 142.128 140.095 141.988 139.955C141.848 139.815 141.778 139.63 141.778 139.4C141.778 139.18 141.848 139.005 141.988 138.875C142.128 138.735 142.308 138.665 142.528 138.665C142.748 138.665 142.928 138.735 143.068 138.875C143.208 139.005 143.278 139.18 143.278 139.4C143.278 139.63 143.208 139.815 143.068 139.955C142.928 140.095 142.748 140.165 142.528 140.165ZM148.036 152.39C147.126 152.39 146.396 152.215 145.846 151.865C145.306 151.515 145.036 151.035 145.036 150.425C145.036 150.115 145.126 149.815 145.306 149.525C145.496 149.235 145.761 148.975 146.101 148.745V148.685C145.911 148.565 145.756 148.405 145.636 148.205C145.516 148.005 145.456 147.77 145.456 147.5C145.456 147.22 145.531 146.965 145.681 146.735C145.841 146.495 146.031 146.3 146.251 146.15V146.09C145.991 145.88 145.771 145.605 145.591 145.265C145.411 144.925 145.321 144.55 145.321 144.14C145.321 143.63 145.441 143.18 145.681 142.79C145.921 142.39 146.246 142.085 146.656 141.875C147.066 141.655 147.516 141.545 148.006 141.545C148.336 141.545 148.671 141.605 149.011 141.725H151.531V142.58H149.986C150.176 142.76 150.331 142.99 150.451 143.27C150.571 143.55 150.631 143.845 150.631 144.155C150.631 144.655 150.516 145.1 150.286 145.49C150.056 145.87 149.741 146.165 149.341 146.375C148.941 146.585 148.496 146.69 148.006 146.69C147.606 146.69 147.236 146.605 146.896 146.435C146.736 146.565 146.611 146.7 146.521 146.84C146.441 146.97 146.401 147.135 146.401 147.335C146.401 147.595 146.496 147.8 146.686 147.95C146.886 148.09 147.221 148.16 147.691 148.16H149.146C149.996 148.16 150.626 148.3 151.036 148.58C151.446 148.86 151.651 149.295 151.651 149.885C151.651 150.325 151.501 150.735 151.201 151.115C150.901 151.505 150.476 151.815 149.926 152.045C149.376 152.275 148.746 152.39 148.036 152.39ZM148.006 145.94C148.456 145.94 148.836 145.775 149.146 145.445C149.466 145.105 149.626 144.67 149.626 144.14C149.626 143.6 149.471 143.17 149.161 142.85C148.851 142.52 148.466 142.355 148.006 142.355C147.546 142.355 147.156 142.52 146.836 142.85C146.526 143.17 146.371 143.6 146.371 144.14C146.371 144.67 146.526 145.105 146.836 145.445C147.156 145.775 147.546 145.94 148.006 145.94ZM148.186 151.61C148.646 151.61 149.056 151.535 149.416 151.385C149.786 151.245 150.071 151.05 150.271 150.8C150.471 150.56 150.571 150.305 150.571 150.035C150.571 149.695 150.446 149.45 150.196 149.3C149.946 149.16 149.566 149.09 149.056 149.09H147.721C147.411 149.09 147.101 149.05 146.791 148.97C146.261 149.34 145.996 149.775 145.996 150.275C145.996 150.685 146.191 151.01 146.581 151.25C146.971 151.49 147.506 151.61 148.186 151.61ZM153.106 138.29H154.186V141.26L154.156 142.79C154.556 142.39 154.946 142.085 155.326 141.875C155.706 141.655 156.126 141.545 156.586 141.545C157.346 141.545 157.906 141.785 158.266 142.265C158.626 142.735 158.806 143.44 158.806 144.38V149H157.711V144.515C157.711 143.815 157.596 143.305 157.366 142.985C157.146 142.665 156.781 142.505 156.271 142.505C155.911 142.505 155.576 142.6 155.266 142.79C154.956 142.97 154.596 143.265 154.186 143.675V149H153.106V138.29ZM163.412 149.18C162.692 149.18 162.177 148.975 161.867 148.565C161.557 148.155 161.402 147.57 161.402 146.81V142.625H160.307V141.8L161.447 141.725L161.582 139.67H162.497V141.725H164.492V142.625H162.497V146.84C162.497 147.32 162.582 147.68 162.752 147.92C162.932 148.16 163.232 148.28 163.652 148.28C163.862 148.28 164.142 148.215 164.492 148.085L164.717 148.91C164.177 149.09 163.742 149.18 163.412 149.18ZM169.175 141.725H170.075L170.165 142.595H170.21C171.06 141.895 171.845 141.545 172.565 141.545C173.495 141.545 174.205 141.88 174.695 142.55C175.195 143.21 175.445 144.11 175.445 145.25C175.445 146.05 175.3 146.75 175.01 147.35C174.72 147.94 174.335 148.395 173.855 148.715C173.375 149.025 172.855 149.18 172.295 149.18C171.645 149.18 170.955 148.895 170.225 148.325L170.255 149.615V152.12H169.175V141.725ZM172.115 148.25C172.535 148.25 172.91 148.13 173.24 147.89C173.58 147.64 173.845 147.29 174.035 146.84C174.225 146.39 174.32 145.865 174.32 145.265C174.32 144.395 174.155 143.715 173.825 143.225C173.505 142.725 173 142.475 172.31 142.475C171.7 142.475 171.015 142.825 170.255 143.525V147.455C170.585 147.735 170.91 147.94 171.23 148.07C171.55 148.19 171.845 148.25 172.115 148.25ZM178.637 149.18C178.227 149.18 177.927 149.055 177.737 148.805C177.547 148.545 177.452 148.165 177.452 147.665V138.29H178.532V147.755C178.532 147.925 178.562 148.055 178.622 148.145C178.692 148.225 178.777 148.265 178.877 148.265C178.957 148.265 179.047 148.255 179.147 148.235L179.297 149.075C179.107 149.145 178.887 149.18 178.637 149.18ZM182.852 149.18C182.232 149.18 181.722 149 181.322 148.64C180.922 148.28 180.722 147.775 180.722 147.125C180.722 146.335 181.082 145.73 181.802 145.31C182.522 144.88 183.672 144.58 185.252 144.41C185.252 143.84 185.132 143.375 184.892 143.015C184.662 142.645 184.262 142.46 183.692 142.46C183.002 142.46 182.267 142.725 181.487 143.255L181.052 142.505C182.012 141.865 182.952 141.545 183.872 141.545C184.712 141.545 185.332 141.81 185.732 142.34C186.132 142.86 186.332 143.58 186.332 144.5V149H185.432L185.342 148.115H185.297C184.437 148.825 183.622 149.18 182.852 149.18ZM183.137 148.295C183.487 148.295 183.827 148.215 184.157 148.055C184.497 147.885 184.862 147.625 185.252 147.275V145.145C184.002 145.295 183.112 145.525 182.582 145.835C182.062 146.145 181.802 146.555 181.802 147.065C181.802 147.475 181.927 147.785 182.177 147.995C182.427 148.195 182.747 148.295 183.137 148.295ZM191.536 149.18C190.896 149.18 190.316 149.03 189.796 148.73C189.286 148.42 188.881 147.98 188.581 147.41C188.291 146.84 188.146 146.16 188.146 145.37C188.146 144.59 188.301 143.91 188.611 143.33C188.931 142.75 189.356 142.31 189.886 142.01C190.416 141.7 190.991 141.545 191.611 141.545C192.401 141.545 193.106 141.835 193.726 142.415L193.156 143.135C192.916 142.915 192.676 142.75 192.436 142.64C192.196 142.52 191.936 142.46 191.656 142.46C191.206 142.46 190.801 142.585 190.441 142.835C190.081 143.075 189.796 143.415 189.586 143.855C189.386 144.295 189.286 144.8 189.286 145.37C189.286 146.24 189.501 146.94 189.931 147.47C190.361 148 190.926 148.265 191.626 148.265C192.256 148.265 192.846 148.015 193.396 147.515L193.876 148.25C193.546 148.54 193.181 148.77 192.781 148.94C192.381 149.1 191.966 149.18 191.536 149.18ZM200.785 144.95C200.785 145.21 200.77 145.43 200.74 145.61H195.715C195.765 146.46 196.025 147.12 196.495 147.59C196.975 148.06 197.56 148.295 198.25 148.295C198.89 148.295 199.505 148.1 200.095 147.71L200.5 148.43C200.14 148.66 199.77 148.845 199.39 148.985C199.01 149.115 198.585 149.18 198.115 149.18C197.475 149.18 196.89 149.03 196.36 148.73C195.84 148.42 195.425 147.975 195.115 147.395C194.815 146.815 194.665 146.14 194.665 145.37C194.665 144.61 194.815 143.94 195.115 143.36C195.425 142.78 195.83 142.335 196.33 142.025C196.83 141.705 197.36 141.545 197.92 141.545C198.82 141.545 199.52 141.85 200.02 142.46C200.53 143.06 200.785 143.89 200.785 144.95ZM199.81 144.815C199.81 144.045 199.645 143.455 199.315 143.045C198.985 142.635 198.525 142.43 197.935 142.43C197.395 142.43 196.915 142.635 196.495 143.045C196.075 143.455 195.825 144.045 195.745 144.815H199.81ZM203.158 149.18C202.928 149.18 202.733 149.1 202.573 148.94C202.413 148.77 202.333 148.56 202.333 148.31C202.333 148.05 202.413 147.84 202.573 147.68C202.733 147.51 202.928 147.425 203.158 147.425C203.388 147.425 203.583 147.51 203.743 147.68C203.903 147.84 203.983 148.05 203.983 148.31C203.983 148.56 203.903 148.77 203.743 148.94C203.583 149.1 203.388 149.18 203.158 149.18ZM208.339 141.725H209.464L210.604 146.06L210.739 146.705C210.879 147.305 210.979 147.76 211.039 148.07H211.099C211.289 147.29 211.459 146.62 211.609 146.06L212.779 141.725H213.874L215.059 146.06L215.569 148.07H215.629L216.109 146.06L217.219 141.725H218.269L216.289 149H214.939L213.829 144.935L213.544 143.75C213.524 143.67 213.454 143.37 213.334 142.85H213.274C213.054 143.84 212.879 144.545 212.749 144.965L211.669 149H210.394L208.339 141.725ZM225.409 144.95C225.409 145.21 225.394 145.43 225.364 145.61H220.339C220.389 146.46 220.649 147.12 221.119 147.59C221.599 148.06 222.184 148.295 222.874 148.295C223.514 148.295 224.129 148.1 224.719 147.71L225.124 148.43C224.764 148.66 224.394 148.845 224.014 148.985C223.634 149.115 223.209 149.18 222.739 149.18C222.099 149.18 221.514 149.03 220.984 148.73C220.464 148.42 220.049 147.975 219.739 147.395C219.439 146.815 219.289 146.14 219.289 145.37C219.289 144.61 219.439 143.94 219.739 143.36C220.049 142.78 220.454 142.335 220.954 142.025C221.454 141.705 221.984 141.545 222.544 141.545C223.444 141.545 224.144 141.85 224.644 142.46C225.154 143.06 225.409 143.89 225.409 144.95ZM224.434 144.815C224.434 144.045 224.269 143.455 223.939 143.045C223.609 142.635 223.149 142.43 222.559 142.43C222.019 142.43 221.539 142.635 221.119 143.045C220.699 143.455 220.449 144.045 220.369 144.815H224.434ZM229.33 141.725H230.455L231.595 146.06L231.73 146.705C231.87 147.305 231.97 147.76 232.03 148.07H232.09C232.28 147.29 232.45 146.62 232.6 146.06L233.77 141.725H234.865L236.05 146.06L236.56 148.07H236.62L237.1 146.06L238.21 141.725H239.26L237.28 149H235.93L234.82 144.935L234.535 143.75C234.515 143.67 234.445 143.37 234.325 142.85H234.265C234.045 143.84 233.87 144.545 233.74 144.965L232.66 149H231.385L229.33 141.725ZM243.625 149.18C243.025 149.18 242.47 149.03 241.96 148.73C241.45 148.42 241.04 147.98 240.73 147.41C240.43 146.83 240.28 146.15 240.28 145.37C240.28 144.59 240.43 143.91 240.73 143.33C241.04 142.75 241.45 142.31 241.96 142.01C242.47 141.7 243.025 141.545 243.625 141.545C244.225 141.545 244.78 141.7 245.29 142.01C245.8 142.31 246.205 142.75 246.505 143.33C246.815 143.91 246.97 144.59 246.97 145.37C246.97 146.15 246.815 146.83 246.505 147.41C246.205 147.98 245.8 148.42 245.29 148.73C244.78 149.03 244.225 149.18 243.625 149.18ZM243.625 148.265C244.055 148.265 244.435 148.145 244.765 147.905C245.105 147.665 245.37 147.325 245.56 146.885C245.75 146.445 245.845 145.94 245.845 145.37C245.845 144.8 245.75 144.295 245.56 143.855C245.37 143.415 245.105 143.075 244.765 142.835C244.435 142.585 244.055 142.46 243.625 142.46C243.195 142.46 242.81 142.585 242.47 142.835C242.14 143.075 241.88 143.415 241.69 143.855C241.51 144.295 241.42 144.8 241.42 145.37C241.42 146.24 241.625 146.94 242.035 147.47C242.445 148 242.975 148.265 243.625 148.265ZM248.951 141.725H249.851L249.941 143.06H249.986C250.236 142.59 250.541 142.22 250.901 141.95C251.261 141.68 251.646 141.545 252.056 141.545C252.346 141.545 252.596 141.595 252.806 141.695L252.596 142.655C252.336 142.575 252.106 142.535 251.906 142.535C251.566 142.535 251.226 142.675 250.886 142.955C250.556 143.235 250.271 143.67 250.031 144.26V149H248.951V141.725ZM254.048 138.29H255.113V145.7H255.158L258.383 141.725H259.598L257.168 144.635L259.928 149H258.743L256.538 145.4L255.113 147.08V149H254.048V138.29ZM263.266 141.725H264.391L265.831 145.97L266.521 148.1H266.581L267.271 145.97L268.711 141.725H269.791L267.181 149H265.921L263.266 141.725ZM276.752 144.95C276.752 145.21 276.737 145.43 276.707 145.61H271.682C271.732 146.46 271.992 147.12 272.462 147.59C272.942 148.06 273.527 148.295 274.217 148.295C274.857 148.295 275.472 148.1 276.062 147.71L276.467 148.43C276.107 148.66 275.737 148.845 275.357 148.985C274.977 149.115 274.552 149.18 274.082 149.18C273.442 149.18 272.857 149.03 272.327 148.73C271.807 148.42 271.392 147.975 271.082 147.395C270.782 146.815 270.632 146.14 270.632 145.37C270.632 144.61 270.782 143.94 271.082 143.36C271.392 142.78 271.797 142.335 272.297 142.025C272.797 141.705 273.327 141.545 273.887 141.545C274.787 141.545 275.487 141.85 275.987 142.46C276.497 143.06 276.752 143.89 276.752 144.95ZM275.777 144.815C275.777 144.045 275.612 143.455 275.282 143.045C274.952 142.635 274.492 142.43 273.902 142.43C273.362 142.43 272.882 142.635 272.462 143.045C272.042 143.455 271.792 144.045 271.712 144.815H275.777ZM278.585 141.725H279.485L279.575 143.06H279.62C279.87 142.59 280.175 142.22 280.535 141.95C280.895 141.68 281.28 141.545 281.69 141.545C281.98 141.545 282.23 141.595 282.44 141.695L282.23 142.655C281.97 142.575 281.74 142.535 281.54 142.535C281.2 142.535 280.86 142.675 280.52 142.955C280.19 143.235 279.905 143.67 279.665 144.26V149H278.585V141.725ZM284.122 152.18C283.822 152.18 283.547 152.13 283.297 152.03L283.507 151.145C283.707 151.225 283.897 151.265 284.077 151.265C284.477 151.265 284.817 151.115 285.097 150.815C285.377 150.515 285.602 150.11 285.772 149.6L285.952 149.045L283.012 141.725H284.137L285.697 145.895L286.417 147.935H286.477C286.617 147.515 286.762 147.055 286.912 146.555L287.107 145.895L288.472 141.725H289.537L286.777 149.675C286.497 150.455 286.147 151.065 285.727 151.505C285.317 151.955 284.782 152.18 284.122 152.18ZM1.275 157.29H2.355V160.26L2.325 161.79C2.725 161.39 3.115 161.085 3.495 160.875C3.875 160.655 4.295 160.545 4.755 160.545C5.515 160.545 6.075 160.785 6.435 161.265C6.795 161.735 6.975 162.44 6.975 163.38V168H5.88V163.515C5.88 162.815 5.765 162.305 5.535 161.985C5.315 161.665 4.95 161.505 4.44 161.505C4.08 161.505 3.745 161.6 3.435 161.79C3.125 161.97 2.765 162.265 2.355 162.675V168H1.275V157.29ZM11.0256 168.18C10.4056 168.18 9.89559 168 9.49559 167.64C9.09559 167.28 8.89559 166.775 8.89559 166.125C8.89559 165.335 9.25559 164.73 9.97559 164.31C10.6956 163.88 11.8456 163.58 13.4256 163.41C13.4256 162.84 13.3056 162.375 13.0656 162.015C12.8356 161.645 12.4356 161.46 11.8656 161.46C11.1756 161.46 10.4406 161.725 9.66059 162.255L9.22559 161.505C10.1856 160.865 11.1256 160.545 12.0456 160.545C12.8856 160.545 13.5056 160.81 13.9056 161.34C14.3056 161.86 14.5056 162.58 14.5056 163.5V168H13.6056L13.5156 167.115H13.4706C12.6106 167.825 11.7956 168.18 11.0256 168.18ZM11.3106 167.295C11.6606 167.295 12.0006 167.215 12.3306 167.055C12.6706 166.885 13.0356 166.625 13.4256 166.275V164.145C12.1756 164.295 11.2856 164.525 10.7556 164.835C10.2356 165.145 9.97559 165.555 9.97559 166.065C9.97559 166.475 10.1006 166.785 10.3506 166.995C10.6006 167.195 10.9206 167.295 11.3106 167.295ZM16.8902 160.725H17.7902L17.8802 162.06H17.9252C18.1752 161.59 18.4802 161.22 18.8402 160.95C19.2002 160.68 19.5852 160.545 19.9952 160.545C20.2852 160.545 20.5352 160.595 20.7452 160.695L20.5352 161.655C20.2752 161.575 20.0452 161.535 19.8452 161.535C19.5052 161.535 19.1652 161.675 18.8252 161.955C18.4952 162.235 18.2102 162.67 17.9702 163.26V168H16.8902V160.725ZM24.2864 168.18C23.3664 168.18 22.6364 167.845 22.0964 167.175C21.5664 166.505 21.3014 165.57 21.3014 164.37C21.3014 163.61 21.4464 162.94 21.7364 162.36C22.0264 161.78 22.4114 161.335 22.8914 161.025C23.3814 160.705 23.9064 160.545 24.4664 160.545C24.8564 160.545 25.2064 160.615 25.5164 160.755C25.8264 160.895 26.1664 161.11 26.5364 161.4L26.4914 160.14V157.29H27.5714V168H26.6714L26.5814 167.115H26.5364C26.2264 167.435 25.8764 167.695 25.4864 167.895C25.1064 168.085 24.7064 168.18 24.2864 168.18ZM24.5264 167.25C24.8764 167.25 25.2064 167.165 25.5164 166.995C25.8364 166.825 26.1614 166.565 26.4914 166.215V162.27C26.1714 161.99 25.8614 161.79 25.5614 161.67C25.2614 161.54 24.9514 161.475 24.6314 161.475C24.2214 161.475 23.8464 161.6 23.5064 161.85C23.1764 162.1 22.9114 162.445 22.7114 162.885C22.5214 163.325 22.4264 163.82 22.4264 164.37C22.4264 165.27 22.6064 165.975 22.9664 166.485C23.3364 166.995 23.8564 167.25 24.5264 167.25ZM35.3257 168.18C34.6057 168.18 34.0907 167.975 33.7807 167.565C33.4707 167.155 33.3157 166.57 33.3157 165.81V161.625H32.2207V160.8L33.3607 160.725L33.4957 158.67H34.4107V160.725H36.4057V161.625H34.4107V165.84C34.4107 166.32 34.4957 166.68 34.6657 166.92C34.8457 167.16 35.1457 167.28 35.5657 167.28C35.7757 167.28 36.0557 167.215 36.4057 167.085L36.6307 167.91C36.0907 168.09 35.6557 168.18 35.3257 168.18ZM40.6711 168.18C40.0711 168.18 39.5161 168.03 39.0061 167.73C38.4961 167.42 38.0861 166.98 37.7761 166.41C37.4761 165.83 37.3261 165.15 37.3261 164.37C37.3261 163.59 37.4761 162.91 37.7761 162.33C38.0861 161.75 38.4961 161.31 39.0061 161.01C39.5161 160.7 40.0711 160.545 40.6711 160.545C41.2711 160.545 41.8261 160.7 42.3361 161.01C42.8461 161.31 43.2511 161.75 43.5511 162.33C43.8611 162.91 44.0161 163.59 44.0161 164.37C44.0161 165.15 43.8611 165.83 43.5511 166.41C43.2511 166.98 42.8461 167.42 42.3361 167.73C41.8261 168.03 41.2711 168.18 40.6711 168.18ZM40.6711 167.265C41.1011 167.265 41.4811 167.145 41.8111 166.905C42.1511 166.665 42.4161 166.325 42.6061 165.885C42.7961 165.445 42.8911 164.94 42.8911 164.37C42.8911 163.8 42.7961 163.295 42.6061 162.855C42.4161 162.415 42.1511 162.075 41.8111 161.835C41.4811 161.585 41.1011 161.46 40.6711 161.46C40.2411 161.46 39.8561 161.585 39.5161 161.835C39.1861 162.075 38.9261 162.415 38.7361 162.855C38.5561 163.295 38.4661 163.8 38.4661 164.37C38.4661 165.24 38.6711 165.94 39.0811 166.47C39.4911 167 40.0211 167.265 40.6711 167.265ZM51.0996 168.18C50.3496 168.18 49.7946 167.945 49.4346 167.475C49.0746 166.995 48.8946 166.285 48.8946 165.345V160.725H49.9746V165.21C49.9746 165.91 50.0896 166.425 50.3196 166.755C50.5496 167.075 50.9196 167.235 51.4296 167.235C51.7996 167.235 52.1346 167.135 52.4346 166.935C52.7446 166.735 53.0896 166.405 53.4696 165.945V160.725H54.5646V168H53.6496L53.5596 166.845H53.5146C53.1446 167.275 52.7646 167.605 52.3746 167.835C51.9946 168.065 51.5696 168.18 51.0996 168.18ZM57.1002 160.725H58.0002L58.0902 161.805H58.1352C58.5352 161.405 58.9252 161.095 59.3052 160.875C59.6952 160.655 60.1202 160.545 60.5802 160.545C61.3402 160.545 61.9002 160.785 62.2602 161.265C62.6202 161.735 62.8002 162.44 62.8002 163.38V168H61.7052V163.515C61.7052 162.815 61.5902 162.305 61.3602 161.985C61.1402 161.665 60.7752 161.505 60.2652 161.505C59.9052 161.505 59.5702 161.6 59.2602 161.79C58.9502 161.97 58.5902 162.265 58.1802 162.675V168H57.1002V160.725ZM67.6897 168.18C66.7697 168.18 66.0397 167.845 65.4997 167.175C64.9697 166.505 64.7047 165.57 64.7047 164.37C64.7047 163.61 64.8497 162.94 65.1397 162.36C65.4297 161.78 65.8147 161.335 66.2947 161.025C66.7847 160.705 67.3097 160.545 67.8697 160.545C68.2597 160.545 68.6097 160.615 68.9197 160.755C69.2297 160.895 69.5697 161.11 69.9397 161.4L69.8947 160.14V157.29H70.9747V168H70.0747L69.9847 167.115H69.9397C69.6297 167.435 69.2797 167.695 68.8897 167.895C68.5097 168.085 68.1097 168.18 67.6897 168.18ZM67.9297 167.25C68.2797 167.25 68.6097 167.165 68.9197 166.995C69.2397 166.825 69.5647 166.565 69.8947 166.215V162.27C69.5747 161.99 69.2647 161.79 68.9647 161.67C68.6647 161.54 68.3547 161.475 68.0347 161.475C67.6247 161.475 67.2497 161.6 66.9097 161.85C66.5797 162.1 66.3147 162.445 66.1147 162.885C65.9247 163.325 65.8297 163.82 65.8297 164.37C65.8297 165.27 66.0097 165.975 66.3697 166.485C66.7397 166.995 67.2597 167.25 67.9297 167.25ZM79.0711 163.95C79.0711 164.21 79.0561 164.43 79.0261 164.61H74.0011C74.0511 165.46 74.3111 166.12 74.7811 166.59C75.2611 167.06 75.8461 167.295 76.5361 167.295C77.1761 167.295 77.7911 167.1 78.3811 166.71L78.7861 167.43C78.4261 167.66 78.0561 167.845 77.6761 167.985C77.2961 168.115 76.8711 168.18 76.4011 168.18C75.7611 168.18 75.1761 168.03 74.6461 167.73C74.1261 167.42 73.7111 166.975 73.4011 166.395C73.1011 165.815 72.9511 165.14 72.9511 164.37C72.9511 163.61 73.1011 162.94 73.4011 162.36C73.7111 161.78 74.1161 161.335 74.6161 161.025C75.1161 160.705 75.6461 160.545 76.2061 160.545C77.1061 160.545 77.8061 160.85 78.3061 161.46C78.8161 162.06 79.0711 162.89 79.0711 163.95ZM78.0961 163.815C78.0961 163.045 77.9311 162.455 77.6011 162.045C77.2711 161.635 76.8111 161.43 76.2211 161.43C75.6811 161.43 75.2011 161.635 74.7811 162.045C74.3611 162.455 74.1111 163.045 74.0311 163.815H78.0961ZM80.9039 160.725H81.8039L81.8939 162.06H81.9389C82.1889 161.59 82.4939 161.22 82.8539 160.95C83.2139 160.68 83.5989 160.545 84.0089 160.545C84.2989 160.545 84.5489 160.595 84.7589 160.695L84.5489 161.655C84.2889 161.575 84.0589 161.535 83.8589 161.535C83.5189 161.535 83.1789 161.675 82.8389 161.955C82.5089 162.235 82.2239 162.67 81.9839 163.26V168H80.9039V160.725ZM87.8176 168.18C87.3176 168.18 86.8326 168.09 86.3626 167.91C85.8926 167.72 85.4776 167.475 85.1176 167.175L85.6726 166.44C86.0326 166.73 86.3826 166.95 86.7226 167.1C87.0626 167.25 87.4426 167.325 87.8626 167.325C88.3426 167.325 88.7126 167.21 88.9726 166.98C89.2326 166.75 89.3626 166.46 89.3626 166.11C89.3626 165.76 89.2126 165.48 88.9126 165.27C88.6226 165.06 88.2076 164.86 87.6676 164.67C86.9776 164.42 86.4376 164.15 86.0476 163.86C85.6576 163.56 85.4626 163.135 85.4626 162.585C85.4626 161.995 85.6826 161.51 86.1226 161.13C86.5726 160.74 87.1776 160.545 87.9376 160.545C88.3476 160.545 88.7426 160.62 89.1226 160.77C89.5026 160.92 89.8426 161.115 90.1426 161.355L89.6176 162.06C89.3276 161.85 89.0526 161.69 88.7926 161.58C88.5326 161.47 88.2476 161.415 87.9376 161.415C87.4776 161.415 87.1276 161.525 86.8876 161.745C86.6476 161.955 86.5276 162.215 86.5276 162.525C86.5276 162.745 86.5976 162.935 86.7376 163.095C86.8876 163.255 87.0676 163.385 87.2776 163.485C87.4876 163.575 87.7826 163.695 88.1626 163.845C88.6726 164.035 89.0726 164.205 89.3626 164.355C89.6526 164.505 89.9026 164.72 90.1126 165C90.3226 165.27 90.4276 165.62 90.4276 166.05C90.4276 166.44 90.3226 166.8 90.1126 167.13C89.9126 167.45 89.6126 167.705 89.2126 167.895C88.8226 168.085 88.3576 168.18 87.8176 168.18ZM94.2564 168.18C93.5364 168.18 93.0214 167.975 92.7114 167.565C92.4014 167.155 92.2464 166.57 92.2464 165.81V161.625H91.1514V160.8L92.2914 160.725L92.4264 158.67H93.3414V160.725H95.3364V161.625H93.3414V165.84C93.3414 166.32 93.4264 166.68 93.5964 166.92C93.7764 167.16 94.0764 167.28 94.4964 167.28C94.7064 167.28 94.9864 167.215 95.3364 167.085L95.5614 167.91C95.0214 168.09 94.5864 168.18 94.2564 168.18ZM98.3449 168.18C97.7249 168.18 97.2149 168 96.8149 167.64C96.4149 167.28 96.2149 166.775 96.2149 166.125C96.2149 165.335 96.5749 164.73 97.2949 164.31C98.0149 163.88 99.1649 163.58 100.745 163.41C100.745 162.84 100.625 162.375 100.385 162.015C100.155 161.645 99.7549 161.46 99.1849 161.46C98.4949 161.46 97.7599 161.725 96.9799 162.255L96.5449 161.505C97.5049 160.865 98.4449 160.545 99.3649 160.545C100.205 160.545 100.825 160.81 101.225 161.34C101.625 161.86 101.825 162.58 101.825 163.5V168H100.925L100.835 167.115H100.79C99.9299 167.825 99.1149 168.18 98.3449 168.18ZM98.6299 167.295C98.9799 167.295 99.3199 167.215 99.6499 167.055C99.9899 166.885 100.355 166.625 100.745 166.275V164.145C99.4949 164.295 98.6049 164.525 98.0749 164.835C97.5549 165.145 97.2949 165.555 97.2949 166.065C97.2949 166.475 97.4199 166.785 97.6699 166.995C97.9199 167.195 98.2399 167.295 98.6299 167.295ZM104.21 160.725H105.11L105.2 161.805H105.245C105.645 161.405 106.035 161.095 106.415 160.875C106.805 160.655 107.23 160.545 107.69 160.545C108.45 160.545 109.01 160.785 109.37 161.265C109.73 161.735 109.91 162.44 109.91 163.38V168H108.815V163.515C108.815 162.815 108.7 162.305 108.47 161.985C108.25 161.665 107.885 161.505 107.375 161.505C107.015 161.505 106.68 161.6 106.37 161.79C106.06 161.97 105.7 162.265 105.29 162.675V168H104.21V160.725ZM114.799 168.18C113.879 168.18 113.149 167.845 112.609 167.175C112.079 166.505 111.814 165.57 111.814 164.37C111.814 163.61 111.959 162.94 112.249 162.36C112.539 161.78 112.924 161.335 113.404 161.025C113.894 160.705 114.419 160.545 114.979 160.545C115.369 160.545 115.719 160.615 116.029 160.755C116.339 160.895 116.679 161.11 117.049 161.4L117.004 160.14V157.29H118.084V168H117.184L117.094 167.115H117.049C116.739 167.435 116.389 167.695 115.999 167.895C115.619 168.085 115.219 168.18 114.799 168.18ZM115.039 167.25C115.389 167.25 115.719 167.165 116.029 166.995C116.349 166.825 116.674 166.565 117.004 166.215V162.27C116.684 161.99 116.374 161.79 116.074 161.67C115.774 161.54 115.464 161.475 115.144 161.475C114.734 161.475 114.359 161.6 114.019 161.85C113.689 162.1 113.424 162.445 113.224 162.885C113.034 163.325 112.939 163.82 112.939 164.37C112.939 165.27 113.119 165.975 113.479 166.485C113.849 166.995 114.369 167.25 115.039 167.25ZM123.648 171.18C123.348 171.18 123.073 171.13 122.823 171.03L123.033 170.145C123.233 170.225 123.423 170.265 123.603 170.265C124.003 170.265 124.343 170.115 124.623 169.815C124.903 169.515 125.128 169.11 125.298 168.6L125.478 168.045L122.538 160.725H123.663L125.223 164.895L125.943 166.935H126.003C126.143 166.515 126.288 166.055 126.438 165.555L126.633 164.895L127.998 160.725H129.063L126.303 168.675C126.023 169.455 125.673 170.065 125.253 170.505C124.843 170.955 124.308 171.18 123.648 171.18ZM133.249 168.18C132.649 168.18 132.094 168.03 131.584 167.73C131.074 167.42 130.664 166.98 130.354 166.41C130.054 165.83 129.904 165.15 129.904 164.37C129.904 163.59 130.054 162.91 130.354 162.33C130.664 161.75 131.074 161.31 131.584 161.01C132.094 160.7 132.649 160.545 133.249 160.545C133.849 160.545 134.404 160.7 134.914 161.01C135.424 161.31 135.829 161.75 136.129 162.33C136.439 162.91 136.594 163.59 136.594 164.37C136.594 165.15 136.439 165.83 136.129 166.41C135.829 166.98 135.424 167.42 134.914 167.73C134.404 168.03 133.849 168.18 133.249 168.18ZM133.249 167.265C133.679 167.265 134.059 167.145 134.389 166.905C134.729 166.665 134.994 166.325 135.184 165.885C135.374 165.445 135.469 164.94 135.469 164.37C135.469 163.8 135.374 163.295 135.184 162.855C134.994 162.415 134.729 162.075 134.389 161.835C134.059 161.585 133.679 161.46 133.249 161.46C132.819 161.46 132.434 161.585 132.094 161.835C131.764 162.075 131.504 162.415 131.314 162.855C131.134 163.295 131.044 163.8 131.044 164.37C131.044 165.24 131.249 165.94 131.659 166.47C132.069 167 132.599 167.265 133.249 167.265ZM140.675 168.18C139.925 168.18 139.37 167.945 139.01 167.475C138.65 166.995 138.47 166.285 138.47 165.345V160.725H139.55V165.21C139.55 165.91 139.665 166.425 139.895 166.755C140.125 167.075 140.495 167.235 141.005 167.235C141.375 167.235 141.71 167.135 142.01 166.935C142.32 166.735 142.665 166.405 143.045 165.945V160.725H144.14V168H143.225L143.135 166.845H143.09C142.72 167.275 142.34 167.605 141.95 167.835C141.57 168.065 141.145 168.18 140.675 168.18ZM146.675 160.725H147.575L147.665 162.06H147.71C147.96 161.59 148.265 161.22 148.625 160.95C148.985 160.68 149.37 160.545 149.78 160.545C150.07 160.545 150.32 160.595 150.53 160.695L150.32 161.655C150.06 161.575 149.83 161.535 149.63 161.535C149.29 161.535 148.95 161.675 148.61 161.955C148.28 162.235 147.995 162.67 147.755 163.26V168H146.675V160.725ZM154.776 160.725H155.676L155.766 161.805H155.811C156.211 161.405 156.601 161.095 156.981 160.875C157.371 160.655 157.796 160.545 158.256 160.545C159.016 160.545 159.576 160.785 159.936 161.265C160.296 161.735 160.476 162.44 160.476 163.38V168H159.381V163.515C159.381 162.815 159.266 162.305 159.036 161.985C158.816 161.665 158.451 161.505 157.941 161.505C157.581 161.505 157.246 161.6 156.936 161.79C156.626 161.97 156.266 162.265 155.856 162.675V168H154.776V160.725ZM168.471 163.95C168.471 164.21 168.456 164.43 168.426 164.61H163.401C163.451 165.46 163.711 166.12 164.181 166.59C164.661 167.06 165.246 167.295 165.936 167.295C166.576 167.295 167.191 167.1 167.781 166.71L168.186 167.43C167.826 167.66 167.456 167.845 167.076 167.985C166.696 168.115 166.271 168.18 165.801 168.18C165.161 168.18 164.576 168.03 164.046 167.73C163.526 167.42 163.111 166.975 162.801 166.395C162.501 165.815 162.351 165.14 162.351 164.37C162.351 163.61 162.501 162.94 162.801 162.36C163.111 161.78 163.516 161.335 164.016 161.025C164.516 160.705 165.046 160.545 165.606 160.545C166.506 160.545 167.206 160.85 167.706 161.46C168.216 162.06 168.471 162.89 168.471 163.95ZM167.496 163.815C167.496 163.045 167.331 162.455 167.001 162.045C166.671 161.635 166.211 161.43 165.621 161.43C165.081 161.43 164.601 161.635 164.181 162.045C163.761 162.455 163.511 163.045 163.431 163.815H167.496ZM175.853 163.95C175.853 164.21 175.838 164.43 175.808 164.61H170.783C170.833 165.46 171.093 166.12 171.563 166.59C172.043 167.06 172.628 167.295 173.318 167.295C173.958 167.295 174.573 167.1 175.163 166.71L175.568 167.43C175.208 167.66 174.838 167.845 174.458 167.985C174.078 168.115 173.653 168.18 173.183 168.18C172.543 168.18 171.958 168.03 171.428 167.73C170.908 167.42 170.493 166.975 170.183 166.395C169.883 165.815 169.733 165.14 169.733 164.37C169.733 163.61 169.883 162.94 170.183 162.36C170.493 161.78 170.898 161.335 171.398 161.025C171.898 160.705 172.428 160.545 172.988 160.545C173.888 160.545 174.588 160.85 175.088 161.46C175.598 162.06 175.853 162.89 175.853 163.95ZM174.878 163.815C174.878 163.045 174.713 162.455 174.383 162.045C174.053 161.635 173.593 161.43 173.003 161.43C172.463 161.43 171.983 161.635 171.563 162.045C171.143 162.455 170.893 163.045 170.813 163.815H174.878ZM180.131 168.18C179.211 168.18 178.481 167.845 177.941 167.175C177.411 166.505 177.146 165.57 177.146 164.37C177.146 163.61 177.291 162.94 177.581 162.36C177.871 161.78 178.256 161.335 178.736 161.025C179.226 160.705 179.751 160.545 180.311 160.545C180.701 160.545 181.051 160.615 181.361 160.755C181.671 160.895 182.011 161.11 182.381 161.4L182.336 160.14V157.29H183.416V168H182.516L182.426 167.115H182.381C182.071 167.435 181.721 167.695 181.331 167.895C180.951 168.085 180.551 168.18 180.131 168.18ZM180.371 167.25C180.721 167.25 181.051 167.165 181.361 166.995C181.681 166.825 182.006 166.565 182.336 166.215V162.27C182.016 161.99 181.706 161.79 181.406 161.67C181.106 161.54 180.796 161.475 180.476 161.475C180.066 161.475 179.691 161.6 179.351 161.85C179.021 162.1 178.756 162.445 178.556 162.885C178.366 163.325 178.271 163.82 178.271 164.37C178.271 165.27 178.451 165.975 178.811 166.485C179.181 166.995 179.701 167.25 180.371 167.25ZM187.823 168.18C187.323 168.18 186.838 168.09 186.368 167.91C185.898 167.72 185.483 167.475 185.123 167.175L185.677 166.44C186.038 166.73 186.388 166.95 186.728 167.1C187.068 167.25 187.448 167.325 187.868 167.325C188.348 167.325 188.718 167.21 188.978 166.98C189.238 166.75 189.368 166.46 189.368 166.11C189.368 165.76 189.218 165.48 188.918 165.27C188.628 165.06 188.213 164.86 187.673 164.67C186.983 164.42 186.443 164.15 186.053 163.86C185.663 163.56 185.468 163.135 185.468 162.585C185.468 161.995 185.688 161.51 186.128 161.13C186.578 160.74 187.183 160.545 187.943 160.545C188.353 160.545 188.748 160.62 189.128 160.77C189.508 160.92 189.848 161.115 190.148 161.355L189.623 162.06C189.333 161.85 189.058 161.69 188.798 161.58C188.538 161.47 188.253 161.415 187.943 161.415C187.483 161.415 187.133 161.525 186.892 161.745C186.653 161.955 186.533 162.215 186.533 162.525C186.533 162.745 186.603 162.935 186.743 163.095C186.893 163.255 187.073 163.385 187.283 163.485C187.493 163.575 187.788 163.695 188.168 163.845C188.678 164.035 189.078 164.205 189.368 164.355C189.658 164.505 189.908 164.72 190.118 165C190.328 165.27 190.433 165.62 190.433 166.05C190.433 166.44 190.328 166.8 190.118 167.13C189.918 167.45 189.618 167.705 189.218 167.895C188.828 168.085 188.363 168.18 187.823 168.18ZM196.856 168.18C196.236 168.18 195.726 168 195.326 167.64C194.926 167.28 194.726 166.775 194.726 166.125C194.726 165.335 195.086 164.73 195.806 164.31C196.526 163.88 197.676 163.58 199.256 163.41C199.256 162.84 199.136 162.375 198.896 162.015C198.666 161.645 198.266 161.46 197.696 161.46C197.006 161.46 196.271 161.725 195.491 162.255L195.056 161.505C196.016 160.865 196.956 160.545 197.876 160.545C198.716 160.545 199.336 160.81 199.736 161.34C200.136 161.86 200.336 162.58 200.336 163.5V168H199.436L199.346 167.115H199.301C198.441 167.825 197.626 168.18 196.856 168.18ZM197.141 167.295C197.491 167.295 197.831 167.215 198.161 167.055C198.501 166.885 198.866 166.625 199.256 166.275V164.145C198.006 164.295 197.116 164.525 196.586 164.835C196.066 165.145 195.806 165.555 195.806 166.065C195.806 166.475 195.931 166.785 196.181 166.995C196.431 167.195 196.751 167.295 197.141 167.295ZM202.72 160.725H203.62L203.71 161.805H203.755C204.155 161.405 204.545 161.095 204.925 160.875C205.315 160.655 205.74 160.545 206.2 160.545C206.96 160.545 207.52 160.785 207.88 161.265C208.24 161.735 208.42 162.44 208.42 163.38V168H207.325V163.515C207.325 162.815 207.21 162.305 206.98 161.985C206.76 161.665 206.395 161.505 205.885 161.505C205.525 161.505 205.19 161.6 204.88 161.79C204.57 161.97 204.21 162.265 203.8 162.675V168H202.72V160.725ZM213.31 168.18C212.39 168.18 211.66 167.845 211.12 167.175C210.59 166.505 210.325 165.57 210.325 164.37C210.325 163.61 210.47 162.94 210.76 162.36C211.05 161.78 211.435 161.335 211.915 161.025C212.405 160.705 212.93 160.545 213.49 160.545C213.88 160.545 214.23 160.615 214.54 160.755C214.85 160.895 215.19 161.11 215.56 161.4L215.515 160.14V157.29H216.595V168H215.695L215.605 167.115H215.56C215.25 167.435 214.9 167.695 214.51 167.895C214.13 168.085 213.73 168.18 213.31 168.18ZM213.55 167.25C213.9 167.25 214.23 167.165 214.54 166.995C214.86 166.825 215.185 166.565 215.515 166.215V162.27C215.195 161.99 214.885 161.79 214.585 161.67C214.285 161.54 213.975 161.475 213.655 161.475C213.245 161.475 212.87 161.6 212.53 161.85C212.2 162.1 211.935 162.445 211.735 162.885C211.545 163.325 211.45 163.82 211.45 164.37C211.45 165.27 211.63 165.975 211.99 166.485C212.36 166.995 212.88 167.25 213.55 167.25ZM224.004 168.18C223.504 168.18 223.019 168.09 222.549 167.91C222.079 167.72 221.664 167.475 221.304 167.175L221.859 166.44C222.219 166.73 222.569 166.95 222.909 167.1C223.249 167.25 223.629 167.325 224.049 167.325C224.529 167.325 224.899 167.21 225.159 166.98C225.419 166.75 225.549 166.46 225.549 166.11C225.549 165.76 225.399 165.48 225.099 165.27C224.809 165.06 224.394 164.86 223.854 164.67C223.164 164.42 222.624 164.15 222.234 163.86C221.844 163.56 221.649 163.135 221.649 162.585C221.649 161.995 221.869 161.51 222.309 161.13C222.759 160.74 223.364 160.545 224.124 160.545C224.534 160.545 224.929 160.62 225.309 160.77C225.689 160.92 226.029 161.115 226.329 161.355L225.804 162.06C225.514 161.85 225.239 161.69 224.979 161.58C224.719 161.47 224.434 161.415 224.124 161.415C223.664 161.415 223.314 161.525 223.074 161.745C222.834 161.955 222.714 162.215 222.714 162.525C222.714 162.745 222.784 162.935 222.924 163.095C223.074 163.255 223.254 163.385 223.464 163.485C223.674 163.575 223.969 163.695 224.349 163.845C224.859 164.035 225.259 164.205 225.549 164.355C225.839 164.505 226.089 164.72 226.299 165C226.509 165.27 226.614 165.62 226.614 166.05C226.614 166.44 226.509 166.8 226.299 167.13C226.099 167.45 225.799 167.705 225.399 167.895C225.009 168.085 224.544 168.18 224.004 168.18ZM233.934 163.95C233.934 164.21 233.919 164.43 233.889 164.61H228.864C228.914 165.46 229.174 166.12 229.644 166.59C230.124 167.06 230.709 167.295 231.399 167.295C232.039 167.295 232.654 167.1 233.244 166.71L233.649 167.43C233.289 167.66 232.919 167.845 232.539 167.985C232.159 168.115 231.734 168.18 231.264 168.18C230.624 168.18 230.039 168.03 229.509 167.73C228.989 167.42 228.574 166.975 228.264 166.395C227.964 165.815 227.814 165.14 227.814 164.37C227.814 163.61 227.964 162.94 228.264 162.36C228.574 161.78 228.979 161.335 229.479 161.025C229.979 160.705 230.509 160.545 231.069 160.545C231.969 160.545 232.669 160.85 233.169 161.46C233.679 162.06 233.934 162.89 233.934 163.95ZM232.959 163.815C232.959 163.045 232.794 162.455 232.464 162.045C232.134 161.635 231.674 161.43 231.084 161.43C230.544 161.43 230.064 161.635 229.644 162.045C229.224 162.455 228.974 163.045 228.894 163.815H232.959ZM235.767 160.725H236.667L236.757 162.06H236.802C237.052 161.59 237.357 161.22 237.717 160.95C238.077 160.68 238.462 160.545 238.872 160.545C239.162 160.545 239.412 160.595 239.622 160.695L239.412 161.655C239.152 161.575 238.922 161.535 238.722 161.535C238.382 161.535 238.042 161.675 237.702 161.955C237.372 162.235 237.087 162.67 236.847 163.26V168H235.767V160.725ZM240.195 160.725H241.32L242.76 164.97L243.45 167.1H243.51L244.2 164.97L245.64 160.725H246.72L244.11 168H242.85L240.195 160.725ZM253.68 163.95C253.68 164.21 253.665 164.43 253.635 164.61H248.61C248.66 165.46 248.92 166.12 249.39 166.59C249.87 167.06 250.455 167.295 251.145 167.295C251.785 167.295 252.4 167.1 252.99 166.71L253.395 167.43C253.035 167.66 252.665 167.845 252.285 167.985C251.905 168.115 251.48 168.18 251.01 168.18C250.37 168.18 249.785 168.03 249.255 167.73C248.735 167.42 248.32 166.975 248.01 166.395C247.71 165.815 247.56 165.14 247.56 164.37C247.56 163.61 247.71 162.94 248.01 162.36C248.32 161.78 248.725 161.335 249.225 161.025C249.725 160.705 250.255 160.545 250.815 160.545C251.715 160.545 252.415 160.85 252.915 161.46C253.425 162.06 253.68 162.89 253.68 163.95ZM252.705 163.815C252.705 163.045 252.54 162.455 252.21 162.045C251.88 161.635 251.42 161.43 250.83 161.43C250.29 161.43 249.81 161.635 249.39 162.045C248.97 162.455 248.72 163.045 248.64 163.815H252.705ZM260.721 168.18C260.001 168.18 259.486 167.975 259.176 167.565C258.866 167.155 258.711 166.57 258.711 165.81V161.625H257.616V160.8L258.756 160.725L258.891 158.67H259.806V160.725H261.801V161.625H259.806V165.84C259.806 166.32 259.891 166.68 260.061 166.92C260.241 167.16 260.541 167.28 260.961 167.28C261.171 167.28 261.451 167.215 261.801 167.085L262.026 167.91C261.486 168.09 261.051 168.18 260.721 168.18ZM263.482 157.29H264.562V160.26L264.532 161.79C264.932 161.39 265.322 161.085 265.702 160.875C266.082 160.655 266.502 160.545 266.962 160.545C267.722 160.545 268.282 160.785 268.642 161.265C269.002 161.735 269.182 162.44 269.182 163.38V168H268.087V163.515C268.087 162.815 267.972 162.305 267.742 161.985C267.522 161.665 267.157 161.505 266.647 161.505C266.287 161.505 265.952 161.6 265.642 161.79C265.332 161.97 264.972 162.265 264.562 162.675V168H263.482V157.29ZM277.133 163.95C277.133 164.21 277.118 164.43 277.088 164.61H272.063C272.113 165.46 272.373 166.12 272.843 166.59C273.323 167.06 273.908 167.295 274.598 167.295C275.238 167.295 275.853 167.1 276.443 166.71L276.848 167.43C276.488 167.66 276.118 167.845 275.738 167.985C275.358 168.115 274.933 168.18 274.463 168.18C273.823 168.18 273.238 168.03 272.708 167.73C272.188 167.42 271.773 166.975 271.463 166.395C271.163 165.815 271.013 165.14 271.013 164.37C271.013 163.61 271.163 162.94 271.463 162.36C271.773 161.78 272.178 161.335 272.678 161.025C273.178 160.705 273.708 160.545 274.268 160.545C275.168 160.545 275.868 160.85 276.368 161.46C276.878 162.06 277.133 162.89 277.133 163.95ZM276.158 163.815C276.158 163.045 275.993 162.455 275.663 162.045C275.333 161.635 274.873 161.43 274.283 161.43C273.743 161.43 273.263 161.635 272.843 162.045C272.423 162.455 272.173 163.045 272.093 163.815H276.158ZM278.965 160.725H279.865L279.955 161.805H280C280.77 160.965 281.525 160.545 282.265 160.545C283.295 160.545 283.965 161.015 284.275 161.955C284.695 161.495 285.1 161.145 285.49 160.905C285.88 160.665 286.28 160.545 286.69 160.545C288.16 160.545 288.895 161.49 288.895 163.38V168H287.8V163.515C287.8 162.815 287.685 162.305 287.455 161.985C287.225 161.665 286.865 161.505 286.375 161.505C285.805 161.505 285.17 161.895 284.47 162.675V168H283.375V163.515C283.375 162.825 283.26 162.32 283.03 162C282.8 161.67 282.445 161.505 281.965 161.505C281.395 161.505 280.755 161.895 280.045 162.675V168H278.965V160.725ZM1.275 179.725H2.175L2.265 180.595H2.31C3.16 179.895 3.945 179.545 4.665 179.545C5.595 179.545 6.305 179.88 6.795 180.55C7.295 181.21 7.545 182.11 7.545 183.25C7.545 184.05 7.4 184.75 7.11 185.35C6.82 185.94 6.435 186.395 5.955 186.715C5.475 187.025 4.955 187.18 4.395 187.18C3.745 187.18 3.055 186.895 2.325 186.325L2.355 187.615V190.12H1.275V179.725ZM4.215 186.25C4.635 186.25 5.01 186.13 5.34 185.89C5.68 185.64 5.945 185.29 6.135 184.84C6.325 184.39 6.42 183.865 6.42 183.265C6.42 182.395 6.255 181.715 5.925 181.225C5.605 180.725 5.1 180.475 4.41 180.475C3.8 180.475 3.115 180.825 2.355 181.525V185.455C2.685 185.735 3.01 185.94 3.33 186.07C3.65 186.19 3.945 186.25 4.215 186.25ZM9.55137 176.29H10.6314V179.26L10.6014 180.79C11.0014 180.39 11.3914 180.085 11.7714 179.875C12.1514 179.655 12.5714 179.545 13.0314 179.545C13.7914 179.545 14.3514 179.785 14.7114 180.265C15.0714 180.735 15.2514 181.44 15.2514 182.38V187H14.1564V182.515C14.1564 181.815 14.0414 181.305 13.8114 180.985C13.5914 180.665 13.2264 180.505 12.7164 180.505C12.3564 180.505 12.0214 180.6 11.7114 180.79C11.4014 180.97 11.0414 181.265 10.6314 181.675V187H9.55137V176.29ZM23.202 182.95C23.202 183.21 23.187 183.43 23.157 183.61H18.132C18.182 184.46 18.442 185.12 18.912 185.59C19.392 186.06 19.977 186.295 20.667 186.295C21.307 186.295 21.922 186.1 22.512 185.71L22.917 186.43C22.557 186.66 22.187 186.845 21.807 186.985C21.427 187.115 21.002 187.18 20.532 187.18C19.892 187.18 19.307 187.03 18.777 186.73C18.257 186.42 17.842 185.975 17.532 185.395C17.232 184.815 17.082 184.14 17.082 183.37C17.082 182.61 17.232 181.94 17.532 181.36C17.842 180.78 18.247 180.335 18.747 180.025C19.247 179.705 19.777 179.545 20.337 179.545C21.237 179.545 21.937 179.85 22.437 180.46C22.947 181.06 23.202 181.89 23.202 182.95ZM22.227 182.815C22.227 182.045 22.062 181.455 21.732 181.045C21.402 180.635 20.942 180.43 20.352 180.43C19.812 180.43 19.332 180.635 18.912 181.045C18.492 181.455 18.242 182.045 18.162 182.815H22.227ZM25.0348 179.725H25.9348L26.0248 180.805H26.0698C26.4698 180.405 26.8598 180.095 27.2398 179.875C27.6298 179.655 28.0548 179.545 28.5148 179.545C29.2748 179.545 29.8348 179.785 30.1948 180.265C30.5548 180.735 30.7348 181.44 30.7348 182.38V187H29.6398V182.515C29.6398 181.815 29.5248 181.305 29.2948 180.985C29.0748 180.665 28.7098 180.505 28.1998 180.505C27.8398 180.505 27.5048 180.6 27.1948 180.79C26.8848 180.97 26.5248 181.265 26.1148 181.675V187H25.0348V179.725ZM35.9543 187.18C35.3543 187.18 34.7993 187.03 34.2893 186.73C33.7793 186.42 33.3693 185.98 33.0593 185.41C32.7593 184.83 32.6093 184.15 32.6093 183.37C32.6093 182.59 32.7593 181.91 33.0593 181.33C33.3693 180.75 33.7793 180.31 34.2893 180.01C34.7993 179.7 35.3543 179.545 35.9543 179.545C36.5543 179.545 37.1093 179.7 37.6193 180.01C38.1293 180.31 38.5343 180.75 38.8343 181.33C39.1443 181.91 39.2993 182.59 39.2993 183.37C39.2993 184.15 39.1443 184.83 38.8343 185.41C38.5343 185.98 38.1293 186.42 37.6193 186.73C37.1093 187.03 36.5543 187.18 35.9543 187.18ZM35.9543 186.265C36.3843 186.265 36.7643 186.145 37.0943 185.905C37.4343 185.665 37.6993 185.325 37.8893 184.885C38.0793 184.445 38.1743 183.94 38.1743 183.37C38.1743 182.8 38.0793 182.295 37.8893 181.855C37.6993 181.415 37.4343 181.075 37.0943 180.835C36.7643 180.585 36.3843 180.46 35.9543 180.46C35.5243 180.46 35.1393 180.585 34.7993 180.835C34.4693 181.075 34.2093 181.415 34.0193 181.855C33.8393 182.295 33.7493 182.8 33.7493 183.37C33.7493 184.24 33.9543 184.94 34.3643 185.47C34.7743 186 35.3043 186.265 35.9543 186.265ZM41.2799 179.725H42.1799L42.2699 180.805H42.3149C43.0849 179.965 43.8399 179.545 44.5799 179.545C45.6099 179.545 46.2799 180.015 46.5899 180.955C47.0099 180.495 47.4149 180.145 47.8049 179.905C48.1949 179.665 48.5949 179.545 49.0049 179.545C50.4749 179.545 51.2099 180.49 51.2099 182.38V187H50.1149V182.515C50.1149 181.815 49.9999 181.305 49.7699 180.985C49.5399 180.665 49.1799 180.505 48.6899 180.505C48.1199 180.505 47.4849 180.895 46.7849 181.675V187H45.6899V182.515C45.6899 181.825 45.5749 181.32 45.3449 181C45.1149 180.67 44.7599 180.505 44.2799 180.505C43.7099 180.505 43.0699 180.895 42.3599 181.675V187H41.2799V179.725ZM59.2078 182.95C59.2078 183.21 59.1928 183.43 59.1628 183.61H54.1378C54.1878 184.46 54.4478 185.12 54.9178 185.59C55.3978 186.06 55.9828 186.295 56.6728 186.295C57.3128 186.295 57.9278 186.1 58.5178 185.71L58.9228 186.43C58.5628 186.66 58.1928 186.845 57.8128 186.985C57.4328 187.115 57.0078 187.18 56.5378 187.18C55.8978 187.18 55.3128 187.03 54.7828 186.73C54.2628 186.42 53.8478 185.975 53.5378 185.395C53.2378 184.815 53.0878 184.14 53.0878 183.37C53.0878 182.61 53.2378 181.94 53.5378 181.36C53.8478 180.78 54.2528 180.335 54.7528 180.025C55.2528 179.705 55.7828 179.545 56.3428 179.545C57.2428 179.545 57.9428 179.85 58.4428 180.46C58.9528 181.06 59.2078 181.89 59.2078 182.95ZM58.2328 182.815C58.2328 182.045 58.0678 181.455 57.7378 181.045C57.4078 180.635 56.9478 180.43 56.3578 180.43C55.8178 180.43 55.3378 180.635 54.9178 181.045C54.4978 181.455 54.2478 182.045 54.1678 182.815H58.2328ZM61.0406 179.725H61.9406L62.0306 180.805H62.0756C62.4756 180.405 62.8656 180.095 63.2456 179.875C63.6356 179.655 64.0606 179.545 64.5206 179.545C65.2806 179.545 65.8406 179.785 66.2006 180.265C66.5606 180.735 66.7406 181.44 66.7406 182.38V187H65.6456V182.515C65.6456 181.815 65.5306 181.305 65.3006 180.985C65.0806 180.665 64.7156 180.505 64.2056 180.505C63.8456 180.505 63.5106 180.6 63.2006 180.79C62.8906 180.97 62.5306 181.265 62.1206 181.675V187H61.0406V179.725ZM70.8352 187.18C70.2152 187.18 69.7052 187 69.3052 186.64C68.9052 186.28 68.7052 185.775 68.7052 185.125C68.7052 184.335 69.0652 183.73 69.7852 183.31C70.5052 182.88 71.6552 182.58 73.2352 182.41C73.2352 181.84 73.1152 181.375 72.8752 181.015C72.6452 180.645 72.2452 180.46 71.6752 180.46C70.9852 180.46 70.2502 180.725 69.4702 181.255L69.0352 180.505C69.9952 179.865 70.9352 179.545 71.8552 179.545C72.6952 179.545 73.3152 179.81 73.7152 180.34C74.1152 180.86 74.3152 181.58 74.3152 182.5V187H73.4152L73.3252 186.115H73.2802C72.4202 186.825 71.6052 187.18 70.8352 187.18ZM71.1202 186.295C71.4702 186.295 71.8102 186.215 72.1402 186.055C72.4802 185.885 72.8452 185.625 73.2352 185.275V183.145C71.9852 183.295 71.0952 183.525 70.5652 183.835C70.0452 184.145 69.7852 184.555 69.7852 185.065C69.7852 185.475 69.9102 185.785 70.1602 185.995C70.4102 186.195 70.7302 186.295 71.1202 186.295ZM77.8848 187.18C77.4748 187.18 77.1748 187.055 76.9848 186.805C76.7948 186.545 76.6998 186.165 76.6998 185.665V176.29H77.7798V185.755C77.7798 185.925 77.8098 186.055 77.8698 186.145C77.9398 186.225 78.0248 186.265 78.1248 186.265C78.2048 186.265 78.2948 186.255 78.3948 186.235L78.5448 187.075C78.3548 187.145 78.1348 187.18 77.8848 187.18ZM81.6348 187.18C81.2248 187.18 80.9248 187.055 80.7348 186.805C80.5448 186.545 80.4498 186.165 80.4498 185.665V176.29H81.5298V185.755C81.5298 185.925 81.5598 186.055 81.6198 186.145C81.6898 186.225 81.7748 186.265 81.8748 186.265C81.9548 186.265 82.0448 186.255 82.1448 186.235L82.2948 187.075C82.1048 187.145 81.8848 187.18 81.6348 187.18ZM84.2148 190.18C83.9148 190.18 83.6398 190.13 83.3898 190.03L83.5998 189.145C83.7998 189.225 83.9898 189.265 84.1698 189.265C84.5698 189.265 84.9098 189.115 85.1898 188.815C85.4698 188.515 85.6948 188.11 85.8648 187.6L86.0448 187.045L83.1048 179.725H84.2298L85.7898 183.895L86.5098 185.935H86.5698C86.7098 185.515 86.8548 185.055 87.0048 184.555L87.1998 183.895L88.5648 179.725H89.6298L86.8698 187.675C86.5898 188.455 86.2398 189.065 85.8198 189.505C85.4098 189.955 84.8748 190.18 84.2148 190.18ZM93.1725 179.725H94.2975L95.4375 184.06L95.5725 184.705C95.7125 185.305 95.8125 185.76 95.8725 186.07H95.9325C96.1225 185.29 96.2925 184.62 96.4425 184.06L97.6125 179.725H98.7075L99.8925 184.06L100.403 186.07H100.463L100.943 184.06L102.053 179.725H103.103L101.123 187H99.7725L98.6625 182.935L98.3775 181.75C98.3575 181.67 98.2875 181.37 98.1675 180.85H98.1075C97.8875 181.84 97.7125 182.545 97.5825 182.965L96.5025 187H95.2275L93.1725 179.725ZM104.737 179.725H105.817V187H104.737V179.725ZM105.292 178.165C105.072 178.165 104.892 178.095 104.752 177.955C104.612 177.815 104.542 177.63 104.542 177.4C104.542 177.18 104.612 177.005 104.752 176.875C104.892 176.735 105.072 176.665 105.292 176.665C105.512 176.665 105.692 176.735 105.832 176.875C105.972 177.005 106.042 177.18 106.042 177.4C106.042 177.63 105.972 177.815 105.832 177.955C105.692 178.095 105.512 178.165 105.292 178.165ZM110.575 187.18C109.855 187.18 109.34 186.975 109.03 186.565C108.72 186.155 108.565 185.57 108.565 184.81V180.625H107.47V179.8L108.61 179.725L108.745 177.67H109.66V179.725H111.655V180.625H109.66V184.84C109.66 185.32 109.745 185.68 109.915 185.92C110.095 186.16 110.395 186.28 110.815 186.28C111.025 186.28 111.305 186.215 111.655 186.085L111.88 186.91C111.34 187.09 110.905 187.18 110.575 187.18ZM113.336 176.29H114.416V179.26L114.386 180.79C114.786 180.39 115.176 180.085 115.556 179.875C115.936 179.655 116.356 179.545 116.816 179.545C117.576 179.545 118.136 179.785 118.496 180.265C118.856 180.735 119.036 181.44 119.036 182.38V187H117.941V182.515C117.941 181.815 117.826 181.305 117.596 180.985C117.376 180.665 117.011 180.505 116.501 180.505C116.141 180.505 115.806 180.6 115.496 180.79C115.186 180.97 114.826 181.265 114.416 181.675V187H113.336V176.29ZM127.214 187.18C126.614 187.18 126.059 187.03 125.549 186.73C125.039 186.42 124.629 185.98 124.319 185.41C124.019 184.83 123.869 184.15 123.869 183.37C123.869 182.59 124.019 181.91 124.319 181.33C124.629 180.75 125.039 180.31 125.549 180.01C126.059 179.7 126.614 179.545 127.214 179.545C127.814 179.545 128.369 179.7 128.879 180.01C129.389 180.31 129.794 180.75 130.094 181.33C130.404 181.91 130.559 182.59 130.559 183.37C130.559 184.15 130.404 184.83 130.094 185.41C129.794 185.98 129.389 186.42 128.879 186.73C128.369 187.03 127.814 187.18 127.214 187.18ZM127.214 186.265C127.644 186.265 128.024 186.145 128.354 185.905C128.694 185.665 128.959 185.325 129.149 184.885C129.339 184.445 129.434 183.94 129.434 183.37C129.434 182.8 129.339 182.295 129.149 181.855C128.959 181.415 128.694 181.075 128.354 180.835C128.024 180.585 127.644 180.46 127.214 180.46C126.784 180.46 126.399 180.585 126.059 180.835C125.729 181.075 125.469 181.415 125.279 181.855C125.099 182.295 125.009 182.8 125.009 183.37C125.009 184.24 125.214 184.94 125.624 185.47C126.034 186 126.564 186.265 127.214 186.265ZM134.64 187.18C133.89 187.18 133.335 186.945 132.975 186.475C132.615 185.995 132.435 185.285 132.435 184.345V179.725H133.515V184.21C133.515 184.91 133.63 185.425 133.86 185.755C134.09 186.075 134.46 186.235 134.97 186.235C135.34 186.235 135.675 186.135 135.975 185.935C136.285 185.735 136.63 185.405 137.01 184.945V179.725H138.105V187H137.19L137.1 185.845H137.055C136.685 186.275 136.305 186.605 135.915 186.835C135.535 187.065 135.11 187.18 134.64 187.18ZM140.64 179.725H141.54L141.63 181.06H141.675C141.925 180.59 142.23 180.22 142.59 179.95C142.95 179.68 143.335 179.545 143.745 179.545C144.035 179.545 144.285 179.595 144.495 179.695L144.285 180.655C144.025 180.575 143.795 180.535 143.595 180.535C143.255 180.535 142.915 180.675 142.575 180.955C142.245 181.235 141.96 181.67 141.72 182.26V187H140.64V179.725ZM150.601 187.18C150.101 187.18 149.616 187.09 149.146 186.91C148.676 186.72 148.261 186.475 147.901 186.175L148.456 185.44C148.816 185.73 149.166 185.95 149.506 186.1C149.846 186.25 150.226 186.325 150.646 186.325C151.126 186.325 151.496 186.21 151.756 185.98C152.016 185.75 152.146 185.46 152.146 185.11C152.146 184.76 151.996 184.48 151.696 184.27C151.406 184.06 150.991 183.86 150.451 183.67C149.761 183.42 149.221 183.15 148.831 182.86C148.441 182.56 148.246 182.135 148.246 181.585C148.246 180.995 148.466 180.51 148.906 180.13C149.356 179.74 149.961 179.545 150.721 179.545C151.131 179.545 151.526 179.62 151.906 179.77C152.286 179.92 152.626 180.115 152.926 180.355L152.401 181.06C152.111 180.85 151.836 180.69 151.576 180.58C151.316 180.47 151.031 180.415 150.721 180.415C150.261 180.415 149.911 180.525 149.671 180.745C149.431 180.955 149.311 181.215 149.311 181.525C149.311 181.745 149.381 181.935 149.521 182.095C149.671 182.255 149.851 182.385 150.061 182.485C150.271 182.575 150.566 182.695 150.946 182.845C151.456 183.035 151.856 183.205 152.146 183.355C152.436 183.505 152.686 183.72 152.896 184C153.106 184.27 153.211 184.62 153.211 185.05C153.211 185.44 153.106 185.8 152.896 186.13C152.696 186.45 152.396 186.705 151.996 186.895C151.606 187.085 151.141 187.18 150.601 187.18ZM157.04 187.18C156.32 187.18 155.805 186.975 155.495 186.565C155.185 186.155 155.03 185.57 155.03 184.81V180.625H153.935V179.8L155.075 179.725L155.21 177.67H156.125V179.725H158.12V180.625H156.125V184.84C156.125 185.32 156.21 185.68 156.38 185.92C156.56 186.16 156.86 186.28 157.28 186.28C157.49 186.28 157.77 186.215 158.12 186.085L158.345 186.91C157.805 187.09 157.37 187.18 157.04 187.18ZM165.16 182.95C165.16 183.21 165.145 183.43 165.115 183.61H160.09C160.14 184.46 160.4 185.12 160.87 185.59C161.35 186.06 161.935 186.295 162.625 186.295C163.265 186.295 163.88 186.1 164.47 185.71L164.875 186.43C164.515 186.66 164.145 186.845 163.765 186.985C163.385 187.115 162.96 187.18 162.49 187.18C161.85 187.18 161.265 187.03 160.735 186.73C160.215 186.42 159.8 185.975 159.49 185.395C159.19 184.815 159.04 184.14 159.04 183.37C159.04 182.61 159.19 181.94 159.49 181.36C159.8 180.78 160.205 180.335 160.705 180.025C161.205 179.705 161.735 179.545 162.295 179.545C163.195 179.545 163.895 179.85 164.395 180.46C164.905 181.06 165.16 181.89 165.16 182.95ZM164.185 182.815C164.185 182.045 164.02 181.455 163.69 181.045C163.36 180.635 162.9 180.43 162.31 180.43C161.77 180.43 161.29 180.635 160.87 181.045C160.45 181.455 160.2 182.045 160.12 182.815H164.185ZM168.178 187.18C167.768 187.18 167.468 187.055 167.278 186.805C167.088 186.545 166.993 186.165 166.993 185.665V176.29H168.073V185.755C168.073 185.925 168.103 186.055 168.163 186.145C168.233 186.225 168.318 186.265 168.418 186.265C168.498 186.265 168.588 186.255 168.688 186.235L168.838 187.075C168.648 187.145 168.428 187.18 168.178 187.18ZM171.928 187.18C171.518 187.18 171.218 187.055 171.028 186.805C170.838 186.545 170.743 186.165 170.743 185.665V176.29H171.823V185.755C171.823 185.925 171.853 186.055 171.913 186.145C171.983 186.225 172.068 186.265 172.168 186.265C172.248 186.265 172.338 186.255 172.438 186.235L172.588 187.075C172.398 187.145 172.178 187.18 171.928 187.18ZM176.143 187.18C175.523 187.18 175.013 187 174.613 186.64C174.213 186.28 174.013 185.775 174.013 185.125C174.013 184.335 174.373 183.73 175.093 183.31C175.813 182.88 176.963 182.58 178.543 182.41C178.543 181.84 178.423 181.375 178.183 181.015C177.953 180.645 177.553 180.46 176.983 180.46C176.293 180.46 175.558 180.725 174.778 181.255L174.343 180.505C175.303 179.865 176.243 179.545 177.163 179.545C178.003 179.545 178.623 179.81 179.023 180.34C179.423 180.86 179.623 181.58 179.623 182.5V187H178.723L178.633 186.115H178.588C177.728 186.825 176.913 187.18 176.143 187.18ZM176.428 186.295C176.778 186.295 177.118 186.215 177.448 186.055C177.788 185.885 178.153 185.625 178.543 185.275V183.145C177.293 183.295 176.403 183.525 175.873 183.835C175.353 184.145 175.093 184.555 175.093 185.065C175.093 185.475 175.218 185.785 175.468 185.995C175.718 186.195 176.038 186.295 176.428 186.295ZM182.007 179.725H182.907L182.997 181.06H183.042C183.292 180.59 183.597 180.22 183.957 179.95C184.317 179.68 184.702 179.545 185.112 179.545C185.402 179.545 185.652 179.595 185.862 179.695L185.652 180.655C185.392 180.575 185.162 180.535 184.962 180.535C184.622 180.535 184.282 180.675 183.942 180.955C183.612 181.235 183.327 181.67 183.087 182.26V187H182.007V179.725ZM191.968 187.18C191.468 187.18 190.983 187.09 190.513 186.91C190.043 186.72 189.628 186.475 189.268 186.175L189.823 185.44C190.183 185.73 190.533 185.95 190.873 186.1C191.213 186.25 191.593 186.325 192.013 186.325C192.493 186.325 192.863 186.21 193.123 185.98C193.383 185.75 193.513 185.46 193.513 185.11C193.513 184.76 193.363 184.48 193.063 184.27C192.773 184.06 192.358 183.86 191.818 183.67C191.128 183.42 190.588 183.15 190.198 182.86C189.808 182.56 189.613 182.135 189.613 181.585C189.613 180.995 189.833 180.51 190.273 180.13C190.723 179.74 191.328 179.545 192.088 179.545C192.498 179.545 192.893 179.62 193.273 179.77C193.653 179.92 193.993 180.115 194.293 180.355L193.768 181.06C193.478 180.85 193.203 180.69 192.943 180.58C192.683 180.47 192.398 180.415 192.088 180.415C191.628 180.415 191.278 180.525 191.038 180.745C190.798 180.955 190.678 181.215 190.678 181.525C190.678 181.745 190.748 181.935 190.888 182.095C191.038 182.255 191.218 182.385 191.428 182.485C191.638 182.575 191.933 182.695 192.313 182.845C192.823 183.035 193.223 183.205 193.513 183.355C193.803 183.505 194.053 183.72 194.263 184C194.473 184.27 194.578 184.62 194.578 185.05C194.578 185.44 194.473 185.8 194.263 186.13C194.063 186.45 193.763 186.705 193.363 186.895C192.973 187.085 192.508 187.18 191.968 187.18ZM201.898 182.95C201.898 183.21 201.883 183.43 201.853 183.61H196.828C196.878 184.46 197.138 185.12 197.608 185.59C198.088 186.06 198.673 186.295 199.363 186.295C200.003 186.295 200.618 186.1 201.208 185.71L201.613 186.43C201.253 186.66 200.883 186.845 200.503 186.985C200.123 187.115 199.698 187.18 199.228 187.18C198.588 187.18 198.003 187.03 197.473 186.73C196.953 186.42 196.538 185.975 196.228 185.395C195.928 184.815 195.778 184.14 195.778 183.37C195.778 182.61 195.928 181.94 196.228 181.36C196.538 180.78 196.943 180.335 197.443 180.025C197.943 179.705 198.473 179.545 199.033 179.545C199.933 179.545 200.633 179.85 201.133 180.46C201.643 181.06 201.898 181.89 201.898 182.95ZM200.923 182.815C200.923 182.045 200.758 181.455 200.428 181.045C200.098 180.635 199.638 180.43 199.048 180.43C198.508 180.43 198.028 180.635 197.608 181.045C197.188 181.455 196.938 182.045 196.858 182.815H200.923ZM203.731 179.725H204.631L204.721 181.06H204.766C205.016 180.59 205.321 180.22 205.681 179.95C206.041 179.68 206.426 179.545 206.836 179.545C207.126 179.545 207.376 179.595 207.586 179.695L207.376 180.655C207.116 180.575 206.886 180.535 206.686 180.535C206.346 180.535 206.006 180.675 205.666 180.955C205.336 181.235 205.051 181.67 204.811 182.26V187H203.731V179.725ZM208.159 179.725H209.284L210.724 183.97L211.414 186.1H211.474L212.164 183.97L213.604 179.725H214.684L212.074 187H210.814L208.159 179.725ZM216.138 179.725H217.218V187H216.138V179.725ZM216.693 178.165C216.473 178.165 216.293 178.095 216.153 177.955C216.013 177.815 215.943 177.63 215.943 177.4C215.943 177.18 216.013 177.005 216.153 176.875C216.293 176.735 216.473 176.665 216.693 176.665C216.913 176.665 217.093 176.735 217.233 176.875C217.373 177.005 217.443 177.18 217.443 177.4C217.443 177.63 217.373 177.815 217.233 177.955C217.093 178.095 216.913 178.165 216.693 178.165ZM222.591 187.18C221.951 187.18 221.371 187.03 220.851 186.73C220.341 186.42 219.936 185.98 219.636 185.41C219.346 184.84 219.201 184.16 219.201 183.37C219.201 182.59 219.356 181.91 219.666 181.33C219.986 180.75 220.411 180.31 220.941 180.01C221.471 179.7 222.046 179.545 222.666 179.545C223.456 179.545 224.161 179.835 224.781 180.415L224.211 181.135C223.971 180.915 223.731 180.75 223.491 180.64C223.251 180.52 222.991 180.46 222.711 180.46C222.261 180.46 221.856 180.585 221.496 180.835C221.136 181.075 220.851 181.415 220.641 181.855C220.441 182.295 220.341 182.8 220.341 183.37C220.341 184.24 220.556 184.94 220.986 185.47C221.416 186 221.981 186.265 222.681 186.265C223.311 186.265 223.901 186.015 224.451 185.515L224.931 186.25C224.601 186.54 224.236 186.77 223.836 186.94C223.436 187.1 223.021 187.18 222.591 187.18ZM231.84 182.95C231.84 183.21 231.825 183.43 231.795 183.61H226.77C226.82 184.46 227.08 185.12 227.55 185.59C228.03 186.06 228.615 186.295 229.305 186.295C229.945 186.295 230.56 186.1 231.15 185.71L231.555 186.43C231.195 186.66 230.825 186.845 230.445 186.985C230.065 187.115 229.64 187.18 229.17 187.18C228.53 187.18 227.945 187.03 227.415 186.73C226.895 186.42 226.48 185.975 226.17 185.395C225.87 184.815 225.72 184.14 225.72 183.37C225.72 182.61 225.87 181.94 226.17 181.36C226.48 180.78 226.885 180.335 227.385 180.025C227.885 179.705 228.415 179.545 228.975 179.545C229.875 179.545 230.575 179.85 231.075 180.46C231.585 181.06 231.84 181.89 231.84 182.95ZM230.865 182.815C230.865 182.045 230.7 181.455 230.37 181.045C230.04 180.635 229.58 180.43 228.99 180.43C228.45 180.43 227.97 180.635 227.55 181.045C227.13 181.455 226.88 182.045 226.8 182.815H230.865ZM235.532 187.18C235.032 187.18 234.547 187.09 234.077 186.91C233.607 186.72 233.192 186.475 232.832 186.175L233.387 185.44C233.747 185.73 234.097 185.95 234.437 186.1C234.777 186.25 235.157 186.325 235.577 186.325C236.057 186.325 236.427 186.21 236.687 185.98C236.947 185.75 237.077 185.46 237.077 185.11C237.077 184.76 236.927 184.48 236.627 184.27C236.337 184.06 235.922 183.86 235.382 183.67C234.692 183.42 234.152 183.15 233.762 182.86C233.372 182.56 233.177 182.135 233.177 181.585C233.177 180.995 233.397 180.51 233.837 180.13C234.287 179.74 234.892 179.545 235.652 179.545C236.062 179.545 236.457 179.62 236.837 179.77C237.217 179.92 237.557 180.115 237.857 180.355L237.332 181.06C237.042 180.85 236.767 180.69 236.507 180.58C236.247 180.47 235.962 180.415 235.652 180.415C235.192 180.415 234.842 180.525 234.602 180.745C234.362 180.955 234.242 181.215 234.242 181.525C234.242 181.745 234.312 181.935 234.452 182.095C234.602 182.255 234.782 182.385 234.992 182.485C235.202 182.575 235.497 182.695 235.877 182.845C236.387 183.035 236.787 183.205 237.077 183.355C237.367 183.505 237.617 183.72 237.827 184C238.037 184.27 238.142 184.62 238.142 185.05C238.142 185.44 238.037 185.8 237.827 186.13C237.627 186.45 237.327 186.705 236.927 186.895C236.537 187.085 236.072 187.18 235.532 187.18ZM240.453 187.18C240.223 187.18 240.028 187.1 239.868 186.94C239.708 186.77 239.628 186.56 239.628 186.31C239.628 186.05 239.708 185.84 239.868 185.68C240.028 185.51 240.223 185.425 240.453 185.425C240.683 185.425 240.878 185.51 241.038 185.68C241.198 185.84 241.278 186.05 241.278 186.31C241.278 186.56 241.198 186.77 241.038 186.94C240.878 187.1 240.683 187.18 240.453 187.18Z" fill="#B9B9B9"/>
<path d="M33.4856 40.4764C32.7652 40.4764 32.1782 39.8894 32.1782 39.169C32.1782 38.4486 32.7652 37.8349 33.4856 37.8349C34.206 37.8349 34.8197 38.4219 34.8197 39.169C34.8197 39.9161 34.206 40.4764 33.4856 40.4764ZM32.2316 64.9971V46.8801C32.2316 46.1864 32.7919 45.626 33.4856 45.626C34.1794 45.626 34.7397 46.1864 34.7397 46.8801V64.9971C34.7397 65.6908 34.1794 66.2512 33.4856 66.2512C32.7919 66.2512 32.2316 65.6908 32.2316 64.9971Z" fill="white"/>
<path d="M41.0633 47.5471C42.344 46.4265 44.025 45.7595 45.8393 45.7595C49.8683 45.7595 53.1235 49.0413 53.1235 53.0436V64.9438C53.1235 65.6375 52.5632 66.1978 51.8695 66.1978C51.1757 66.1978 50.6154 65.6375 50.6154 64.9438V53.0436C50.6154 50.4021 48.4809 48.2676 45.8393 48.2676C43.1978 48.2676 41.0633 50.4021 41.0633 53.0436V64.9971C41.0633 65.6909 40.503 66.2512 39.8092 66.2512C39.1155 66.2512 38.5552 65.6909 38.5552 64.9971V47.0135C38.5552 46.3198 39.1155 45.7595 39.8092 45.7595C40.503 45.7595 41.0633 46.3198 41.0633 47.0135V47.5471Z" fill="white"/>
<path d="M65.3708 66.2245C65.2374 66.1978 65.104 66.1711 64.9706 66.0911C64.8105 66.011 64.6771 65.9043 64.5704 65.7709C64.5437 65.7442 64.5437 65.7175 64.517 65.6908C64.4636 65.6108 64.4103 65.5041 64.3836 65.424L57.1261 47.3337C56.8593 46.6933 57.1795 45.9462 57.8198 45.7061C58.4602 45.4393 59.2073 45.7595 59.4474 46.3998L65.5309 61.5552L71.4276 46.4265C71.6678 45.7861 72.4148 45.466 73.0552 45.7061C73.6956 45.9462 74.0158 46.6933 73.7756 47.3337L66.7049 65.424C66.6782 65.4507 66.6782 65.5041 66.6515 65.5308C66.5982 65.6375 66.5448 65.7175 66.4648 65.8243C66.3847 65.931 66.278 66.011 66.1446 66.0644C66.0112 66.1444 65.8511 66.1978 65.691 66.2245C65.6376 66.2245 65.5843 66.2245 65.5309 66.2245C65.4775 66.2512 65.4242 66.2512 65.3708 66.2245Z" fill="white"/>
<path d="M76.6836 55.9252C76.6836 50.242 81.2996 45.626 86.9828 45.626C92.6661 45.626 97.282 50.242 97.282 55.9252C97.282 61.6085 92.6661 66.2245 86.9828 66.2245C81.2996 66.2511 76.6836 61.6085 76.6836 55.9252ZM79.1917 55.9252C79.1917 60.221 82.687 63.7164 86.9828 63.7164C91.2786 63.7164 94.7739 60.221 94.7739 55.9252C94.7739 51.6294 91.2786 48.1341 86.9828 48.1341C82.687 48.1341 79.1917 51.6294 79.1917 55.9252Z" fill="white"/>
<path d="M101.018 55.9252C101.018 50.242 105.634 45.626 111.317 45.626C114.278 45.626 117.08 46.9067 119.055 49.1213C119.508 49.6283 119.455 50.4288 118.948 50.8823C118.441 51.3359 117.64 51.2826 117.187 50.7756C115.693 49.0947 113.585 48.1341 111.343 48.1341C107.048 48.1341 103.552 51.6294 103.552 55.9252C103.552 60.221 107.048 63.7164 111.343 63.7164C113.585 63.7164 115.719 62.7558 117.187 61.0748C117.64 60.5412 118.441 60.5145 118.975 60.9681C119.508 61.4217 119.535 62.2222 119.081 62.7291C117.133 64.9437 114.305 66.2245 111.343 66.2245C105.66 66.2511 101.018 61.6085 101.018 55.9252Z" fill="white"/>
<path d="M15.2621 33.9928C15.9291 33.9394 16.5428 33.6193 16.9697 33.1123C17.3966 32.6053 17.6101 31.9383 17.5567 31.2712C17.5034 30.6042 17.1832 29.9905 16.6762 29.5636C16.1693 29.1367 15.5022 28.9232 14.8352 28.9766C14.7818 28.9766 14.7018 28.9766 14.6484 29.0033C13.3677 29.2167 12.4338 30.3907 12.5405 31.6982C12.6739 33.0589 13.9013 34.0995 15.2621 33.9928Z" fill="#F37024"/>
<path d="M19.0776 40.3431C20.8919 37.1946 23.1065 34.2863 25.668 31.7782C27.8292 29.6703 30.2306 27.8292 32.8188 26.3617C36.3941 24.2806 40.263 22.7864 44.2386 21.9325C46.2665 21.6657 48.2409 21.2655 50.2687 21.2121C52.2966 21.1588 54.2977 21.2655 56.2455 21.4789C64.1167 22.4929 71.4542 26.2283 76.8173 31.6714C77.1108 31.9649 77.4576 32.2851 77.7778 32.5519C83.0341 36.8744 90.8253 36.1273 95.1477 30.871C96.9621 28.6831 97.8693 26.0682 97.9493 23.4267C88.3705 9.39204 72.2546 0.13341 54.0042 0C52.8836 0.0266819 51.6829 0.0533639 50.4822 0.0800458C40.2897 0.667048 30.871 4.10902 22.9998 9.60549C27.8026 7.17744 33.0856 6.48371 38.6888 5.57652C51.5495 3.49533 64.6236 6.16353 75.6433 13.0475C76.4971 12.3004 77.5644 11.7667 78.765 11.5533C82.2337 10.993 85.4889 13.341 86.0492 16.8096C86.6095 20.2783 84.2615 23.5335 80.7929 24.0938C77.3242 24.6541 74.069 22.3061 73.5087 18.8374C73.2952 17.4767 73.5354 16.1426 74.1224 14.9952C63.6364 8.53822 51.256 6.0568 39.0623 8.00458C27.9093 9.81895 17.6634 14.6217 10.8329 22.5996C6.45703 27.7492 3.8422 34.1529 2.00114 40.5298C0.69373 44.959 0.0800458 49.5216 0 54.0843C0.0266819 57.1794 0.320183 60.1944 0.853822 63.1561C1.30741 52.7502 4.80275 42.7178 10.9396 34.2062C10.486 33.5392 10.1658 32.7387 10.1124 31.8849C9.87231 29.1367 11.9268 26.7353 14.6484 26.4952C15.9825 26.3884 17.2632 26.7887 18.2771 27.6425C19.291 28.4963 19.9047 29.697 20.0114 31.0311C20.1182 32.3652 19.7179 33.6459 18.8641 34.6598C18.0903 35.567 17.0497 36.1807 15.8757 36.3675C15.7423 36.3941 15.6089 36.3941 15.4755 36.4208C14.515 36.5009 13.5811 36.2874 12.7806 35.8605C5.73661 45.7061 2.42806 57.713 3.44197 69.8266C3.5487 71.134 3.70879 72.4147 3.92224 73.6955C4.96284 76.2569 6.19021 78.7384 7.60435 81.1131C6.61712 63.2895 13.4744 48.9346 19.0776 40.3431Z" fill="#F37024"/>
<path d="M80.3924 21.6925C82.5003 21.3456 83.9678 19.3445 83.6209 17.2366C83.2741 15.1287 81.2729 13.6612 79.1651 14.0081C77.0572 14.355 75.5897 16.3561 75.9366 18.464C76.2834 20.5719 78.2846 22.0394 80.3924 21.6925Z" fill="#F37024"/>
<path d="M96.749 77.938L100.778 81.3266C101.232 81.7268 101.925 81.2732 101.739 80.6862L98.7235 70.974C98.5901 70.5738 98.0831 70.4137 97.7629 70.6805L89.8651 77.0842C89.3848 77.4577 89.705 78.2315 90.3187 78.1515L95.4149 77.5645C92.6934 82.554 89.0646 87.0099 84.7955 90.5852C77.1912 97.0423 67.5323 100.778 57.8735 101.071C53.044 101.258 48.268 100.671 43.7054 99.3369C39.1694 97.9228 34.927 95.8149 31.1382 93.0933C27.376 90.3718 23.9874 87.1166 21.3993 83.3544C18.7845 79.619 16.7833 75.4833 15.5026 71.1875C14.1685 66.9184 13.7682 62.3824 13.9283 58.0066C14.1151 53.6308 14.9689 49.2816 16.6232 45.2793C17.3169 43.545 18.1441 41.8907 19.078 40.2898C13.4747 48.8814 6.61749 63.2363 7.57804 81.0598C16.9434 96.6954 34.0465 107.181 53.6044 107.181C56.8062 107.181 59.9547 106.888 63.0231 106.328C72.175 104.193 80.5798 99.3903 86.9301 92.7998C91.1458 88.5307 94.4544 83.4078 96.749 77.938Z" fill="#CF3A27"/>
</svg>
