<svg width="123" height="111" viewBox="0 0 123 111" fill="none" xmlns="http://www.w3.org/2000/svg">
<path d="M34.4958 41.6967C33.7536 41.6967 33.1489 41.092 33.1489 40.3499C33.1489 39.6078 33.7536 38.9756 34.4958 38.9756C35.2379 38.9756 35.8701 39.5803 35.8701 40.3499C35.8701 41.1195 35.2379 41.6967 34.4958 41.6967ZM33.2039 66.9567V48.2935C33.2039 47.5788 33.7811 47.0016 34.4958 47.0016C35.2104 47.0016 35.7876 47.5788 35.7876 48.2935V66.9567C35.7876 67.6714 35.2104 68.2486 34.4958 68.2486C33.7811 68.2486 33.2039 67.6714 33.2039 66.9567Z" fill="#212222"/>
<path d="M42.302 48.9807C43.6213 47.8263 45.353 47.1392 47.2221 47.1392C51.3725 47.1392 54.7258 50.52 54.7258 54.643V66.9019C54.7258 67.6165 54.1486 68.1938 53.434 68.1938C52.7193 68.1938 52.1421 67.6165 52.1421 66.9019V54.643C52.1421 51.9218 49.9432 49.7229 47.2221 49.7229C44.5009 49.7229 42.302 51.9218 42.302 54.643V66.9569C42.302 67.6715 41.7248 68.2487 41.0101 68.2487C40.2955 68.2487 39.7183 67.6715 39.7183 66.9569V48.431C39.7183 47.7164 40.2955 47.1392 41.0101 47.1392C41.7248 47.1392 42.302 47.7164 42.302 48.431V48.9807Z" fill="#212222"/>
<path d="M67.342 68.2211C67.2045 68.1936 67.0671 68.1661 66.9297 68.0836C66.7648 68.0012 66.6273 67.8912 66.5174 67.7538C66.4899 67.7263 66.4899 67.6988 66.4624 67.6713C66.4074 67.5889 66.3525 67.4789 66.325 67.3965L58.8487 48.7607C58.5738 48.101 58.9036 47.3314 59.5633 47.084C60.223 46.8092 60.9926 47.139 61.24 47.7987L67.5069 63.411L73.5814 47.8262C73.8288 47.1665 74.5984 46.8366 75.2581 47.084C75.9177 47.3314 76.2476 48.101 76.0002 48.7607L68.7163 67.3965C68.6888 67.424 68.6888 67.4789 68.6613 67.5064C68.6063 67.6164 68.5514 67.6988 68.4689 67.8088C68.3865 67.9187 68.2765 68.0012 68.1391 68.0562C68.0016 68.1386 67.8367 68.1936 67.6718 68.2211C67.6168 68.2211 67.5619 68.2211 67.5069 68.2211C67.4519 68.2486 67.3969 68.2486 67.342 68.2211Z" fill="#212222"/>
<path d="M78.9961 57.6112C78.9961 51.7566 83.7512 47.0015 89.6058 47.0015C95.4605 47.0015 100.216 51.7566 100.216 57.6112C100.216 63.4658 95.4605 68.221 89.6058 68.221C83.7512 68.2485 78.9961 63.4658 78.9961 57.6112ZM81.5798 57.6112C81.5798 62.0365 85.1805 65.6373 89.6058 65.6373C94.0312 65.6373 97.6319 62.0365 97.6319 57.6112C97.6319 53.1859 94.0312 49.5852 89.6058 49.5852C85.1805 49.5852 81.5798 53.1859 81.5798 57.6112Z" fill="#212222"/>
<path d="M104.064 57.6112C104.064 51.7566 108.819 47.0015 114.674 47.0015C117.725 47.0015 120.611 48.3208 122.645 50.6022C123.112 51.1244 123.057 51.949 122.535 52.4163C122.013 52.8836 121.188 52.8286 120.721 52.3063C119.181 50.5747 117.01 49.5852 114.701 49.5852C110.276 49.5852 106.675 53.1859 106.675 57.6112C106.675 62.0365 110.276 65.6373 114.701 65.6373C117.01 65.6373 119.209 64.6477 120.721 62.9161C121.188 62.3664 122.013 62.3389 122.562 62.8061C123.112 63.2734 123.14 64.098 122.672 64.6203C120.666 66.9016 117.752 68.221 114.701 68.221C108.847 68.2485 104.064 63.4658 104.064 57.6112Z" fill="#212222"/>
<path d="M15.7223 35.0178C16.4095 34.9628 17.0417 34.633 17.4815 34.1107C17.9212 33.5885 18.1411 32.9013 18.0862 32.2142C18.0312 31.527 17.7013 30.8948 17.1791 30.455C16.6569 30.0153 15.9697 29.7954 15.2825 29.8503C15.2276 29.8503 15.1451 29.8503 15.0901 29.8778C13.7708 30.0977 12.8088 31.3071 12.9187 32.654C13.0561 34.0558 14.3205 35.1277 15.7223 35.0178Z" fill="#F37024"/>
<path d="M19.6528 41.5594C21.5219 38.3161 23.8032 35.32 26.4419 32.7363C28.6683 30.5649 31.1421 28.6683 33.8083 27.1566C37.4915 25.0126 41.477 23.4734 45.5725 22.5938C47.6614 22.319 49.6954 21.9067 51.7844 21.8517C53.8734 21.7967 55.9348 21.9067 57.9413 22.1266C66.0498 23.171 73.6086 27.0191 79.1334 32.6264C79.4357 32.9287 79.793 33.2586 80.1229 33.5334C85.5377 37.9862 93.5637 37.2166 98.0165 31.8018C99.8856 29.5479 100.82 26.8542 100.903 24.1331C91.035 9.67522 74.4332 0.137432 55.6325 0C54.4781 0.0274864 53.2412 0.0549728 52.0043 0.0824592C41.5045 0.68716 31.8018 4.23291 23.6933 9.89511C28.6408 7.39384 34.0831 6.6792 39.8553 5.74466C53.1037 3.60072 66.5721 6.34936 77.924 13.4409C78.8035 12.6712 79.903 12.1215 81.1399 11.9016C84.7131 11.3244 88.0665 13.7432 88.6437 17.3164C89.2209 20.8897 86.8021 24.243 83.2288 24.8202C79.6556 25.3974 76.3023 22.9786 75.7251 19.4054C75.5052 18.0036 75.7525 16.6293 76.3572 15.4474C65.5551 8.79565 52.8014 6.23941 40.2401 8.24592C28.7508 10.115 18.196 15.0626 11.1595 23.281C6.65171 28.5859 3.95804 35.1826 2.06148 41.7519C0.714647 46.3146 0.0824592 51.0148 0 55.7149C0.0274864 58.9034 0.329837 62.0093 0.879565 65.0603C1.34683 54.3406 4.94755 44.0057 11.2694 35.2376C10.8022 34.5504 10.4723 33.7258 10.4173 32.8463C10.17 30.0152 12.2864 27.5414 15.09 27.294C16.4644 27.1841 17.7837 27.5964 18.8282 28.4759C19.8727 29.3555 20.5049 30.5924 20.6148 31.9667C20.7248 33.341 20.3125 34.6604 19.4329 35.7048C18.6358 36.6394 17.5638 37.2716 16.3544 37.464C16.217 37.4915 16.0795 37.4915 15.9421 37.5189C14.9526 37.6014 13.9906 37.3815 13.166 36.9417C5.90958 47.0842 2.50126 59.4531 3.54575 71.9319C3.65569 73.2788 3.82061 74.5981 4.0405 75.9175C5.11247 78.5562 6.37685 81.1124 7.83363 83.5587C6.81663 65.1978 13.8806 50.4101 19.6528 41.5594Z" fill="#F37024"/>
<path d="M82.8164 22.3466C84.9878 21.9893 86.4996 19.9278 86.1423 17.7564C85.7849 15.5849 83.7235 14.0732 81.552 14.4305C79.3806 14.7878 77.8688 16.8493 78.2262 19.0207C78.5835 21.1922 80.645 22.7039 82.8164 22.3466Z" fill="#F37024"/>
<path d="M99.6659 80.288L103.816 83.7787C104.284 84.191 104.998 83.7238 104.806 83.1191L101.7 73.114C101.562 72.7017 101.04 72.5368 100.71 72.8117L92.5744 79.4084C92.0797 79.7932 92.4095 80.5903 93.0417 80.5079L98.2916 79.9032C95.488 85.0431 91.7498 89.6333 87.352 93.3165C79.5184 99.9682 69.5683 103.816 59.6182 104.119C54.6432 104.311 49.7231 103.706 45.023 102.332C40.3503 100.875 35.9799 98.7038 32.0769 95.9002C28.2013 93.0966 24.7105 89.7433 22.0443 85.8677C19.3507 82.0196 17.2892 77.7592 15.9698 73.3339C14.5955 68.9361 14.1832 64.2634 14.3481 59.7556C14.5405 55.2478 15.4201 50.7676 17.1243 46.6446C17.8389 44.858 18.691 43.1538 19.653 41.5046C13.8809 50.3553 6.81686 65.1429 7.80637 83.5039C17.4541 99.6109 35.0729 110.413 55.2204 110.413C58.5188 110.413 61.7622 110.111 64.9231 109.534C74.351 107.335 83.0092 102.387 89.5509 95.5979C93.8938 91.2001 97.3021 85.9227 99.6659 80.288Z" fill="#CF3A27"/>
</svg>
