<svg width="94" height="94" viewBox="0 0 94 94" fill="none" xmlns="http://www.w3.org/2000/svg">
<rect width="94" height="94" rx="15" fill="#00C1EC"/>
<path d="M42.4502 78.0007C41.2579 77.4905 40.8116 76.5934 40.9093 75.3449C40.9756 74.511 40.922 73.6679 40.922 72.7261C40.452 72.7261 40.0198 72.7353 39.5877 72.7245C38.3275 72.6922 37.4601 71.96 37.356 70.7485C37.2898 69.9762 37.3276 69.1932 37.3655 68.4163C37.4017 67.6657 37.8071 67.1246 38.4537 66.7177C38.6209 66.6129 38.7565 66.3401 38.766 66.1397C38.8007 65.3212 38.7518 64.4981 38.7928 63.6796C38.8133 63.2604 38.654 63.0661 38.2802 62.8981C35.2884 61.5556 32.7476 59.6335 30.6941 57.1256C27.3505 53.0471 25.7292 48.3951 25.8948 43.1605C26.0368 38.655 27.5067 34.6089 30.3093 31.0344C33.3816 27.1161 37.386 24.5466 42.3004 23.3844C46.2733 22.4457 50.2177 22.626 54.0944 23.9162C54.506 24.0534 54.8451 24.0981 55.2725 23.8653C55.8876 23.5293 56.5011 23.7343 57.0105 24.1813C57.3228 24.4557 57.6193 24.7485 57.9 25.0522C58.1335 25.3034 58.3369 25.4113 58.7107 25.2587C59.0829 25.1077 59.1507 24.8904 59.135 24.5528C59.116 24.1428 59.1145 23.7312 59.1365 23.3228C59.187 22.3763 59.8289 21.7582 60.7926 21.7428C61.8855 21.7259 62.9801 21.7259 64.073 21.7428C65.0477 21.7582 65.6675 22.3702 65.7054 23.3289C65.7212 23.7173 65.7243 24.1089 65.7054 24.4973C65.688 24.8518 65.7417 25.0923 66.1454 25.2572C66.5634 25.4283 66.7637 25.2495 67.0034 24.9998C67.2762 24.7146 67.5507 24.4295 67.8535 24.1751C68.5947 23.5524 69.4086 23.5416 70.1199 24.1952C70.9463 24.9535 71.7427 25.7443 72.5219 26.5504C73.137 27.187 73.1117 28.0548 72.5014 28.7146C72.2332 29.0028 71.9494 29.2787 71.6592 29.5454C71.3879 29.7935 71.2049 29.997 71.3926 30.4286C71.585 30.871 71.8863 30.8479 72.2443 30.8417C72.6228 30.8355 73.0013 30.8309 73.3798 30.8448C74.2725 30.8756 74.9459 31.4783 74.9743 32.3507C75.0106 33.4775 75.009 34.6073 74.9759 35.7341C74.9491 36.6404 74.2772 37.2447 73.3467 37.2693C72.9477 37.2801 72.5455 37.2955 72.1481 37.2662C71.7664 37.2385 71.544 37.3387 71.3816 37.7148C71.2254 38.077 71.3343 38.2758 71.5898 38.504C71.9147 38.7953 72.2254 39.1036 72.5187 39.4242C73.0991 40.0562 73.1275 40.9255 72.5376 41.5421C71.7491 42.3652 70.9463 43.1837 70.082 43.9297C69.7319 44.2318 69.2067 44.3412 68.6421 44.5894C68.5947 45.1073 68.549 45.7778 68.4701 46.4437C68.3913 47.1142 67.986 47.4533 67.3993 47.3809C66.8599 47.3146 66.5665 46.8861 66.6059 46.2433C66.6643 45.3031 66.7195 44.3613 66.7605 43.4195C66.77 43.2052 66.7116 42.9879 66.6848 42.7706C65.7385 42.9124 65.707 42.9463 65.7054 43.7524C65.7038 44.1208 65.7164 44.4908 65.6959 44.8592C65.647 45.7408 65.0193 46.3543 64.1204 46.3697C63.0069 46.3882 61.8918 46.3867 60.7768 46.3713C59.8463 46.3589 59.1965 45.7516 59.1365 44.8407C59.105 44.3705 59.1697 43.8927 59.1066 43.4287C59.0782 43.2253 58.8716 42.9632 58.6807 42.8892C58.4915 42.8153 58.1666 42.8738 57.9963 42.9987C57.6461 43.2546 57.3733 43.606 57.0468 43.8958C56.3008 44.5586 55.4665 44.5848 54.7363 43.9143C53.9098 43.1544 53.115 42.3636 52.3358 41.5575C51.7444 40.9455 51.7539 40.07 52.3232 39.435C52.6134 39.1113 52.9225 38.7999 53.2522 38.5148C53.5424 38.262 53.5976 38.0323 53.4477 37.6624C53.2948 37.2816 53.0503 37.2585 52.7175 37.2678C52.2759 37.2816 51.8343 37.2847 51.3927 37.2631C50.5757 37.2231 49.9149 36.6019 49.8944 35.8004C49.866 34.632 49.8644 33.4621 49.896 32.2937C49.9181 31.4999 50.5884 30.8864 51.4101 30.8479C51.8296 30.8278 52.2507 30.8309 52.6718 30.8417C53.0219 30.8509 53.2932 30.8432 53.4556 30.4286C53.6055 30.0463 53.5219 29.8244 53.2364 29.5793C52.9525 29.3373 52.6923 29.066 52.4336 28.7963C51.7176 28.0502 51.7113 27.1762 52.4352 26.4472C52.697 26.1851 53.0093 25.9709 53.2995 25.7335C53.2742 25.6595 53.2506 25.5855 53.2254 25.5115C52.1939 25.288 51.1719 24.9952 50.1294 24.8518C45.9752 24.283 42.0007 24.878 38.2802 26.8032C33.9935 29.0228 30.8849 32.3307 29.1438 36.7483C26.9294 42.3605 27.2764 47.8834 30.2383 53.175C32.3186 56.8898 35.3814 59.635 39.3653 61.3321C40.3447 61.7498 40.7753 62.2692 40.6854 63.3174C40.6002 64.3147 40.6665 65.3243 40.6665 66.3755C41.0781 66.3755 41.4645 66.3755 41.9061 66.3755C41.9061 64.2376 41.9061 62.075 41.9061 59.8724C41.7941 59.8492 41.6569 59.8153 41.5197 59.7938C40.7359 59.6689 40.1839 59.1063 40.1586 58.3356C40.1318 57.5156 40.1318 56.694 40.1555 55.8755C40.1807 54.9954 40.8179 54.3788 41.7184 54.3542C42.496 54.3326 43.2751 54.3357 44.0526 54.3511C44.9926 54.3696 45.6519 54.9676 45.6929 55.8771C45.7291 56.6755 45.7307 57.477 45.6929 58.2755C45.6503 59.1972 45.1345 59.6396 43.8965 59.8708C43.8965 62.0226 43.8965 64.1837 43.8965 66.3848C44.8191 66.3848 45.7323 66.3848 46.729 66.3848C46.729 66.1628 46.729 65.9455 46.729 65.7281C46.729 63.5748 46.729 61.4215 46.729 59.2681C46.729 59.1248 46.7259 58.9814 46.7306 58.8381C46.7527 58.1614 47.106 57.7653 47.6801 57.7714C48.2447 57.7776 48.609 58.1799 48.6185 58.8581C48.6327 59.8431 48.6216 60.8265 48.6232 61.8114C48.6232 63.3251 48.6232 64.8387 48.6232 66.3879C49.2714 66.3879 49.8692 66.3879 50.5126 66.3879C50.53 66.2738 50.5615 66.1597 50.5615 66.0441C50.5647 63.9108 50.5773 61.7775 50.5489 59.6458C50.5442 59.3483 50.4117 58.9784 50.2035 58.7703C47.9577 56.5245 45.685 54.3033 43.417 52.0775C43.3886 52.0498 43.3445 52.0374 43.3082 52.0189C41.843 52.6864 41.5812 52.6386 40.4204 51.4949C40.0498 51.1311 39.6729 50.7735 39.3133 50.4005C38.643 49.7053 38.6288 48.8329 39.2896 48.1454C39.8069 47.6075 40.34 47.0819 40.8904 46.5747C41.6711 45.8534 42.4975 45.8518 43.2924 46.5655C43.7246 46.9539 44.1252 47.3763 44.54 47.7847C45.5951 48.8252 45.6282 49.488 44.644 50.6332C44.7923 50.7874 44.9406 50.9492 45.0983 51.1049C47.1864 53.158 49.2635 55.222 51.3738 57.2535C52.1261 57.978 52.492 58.7872 52.4731 59.8246C52.4352 61.7729 52.462 63.7212 52.462 65.6696C52.462 65.8931 52.462 66.115 52.462 66.3817C52.9178 66.3817 53.3263 66.3817 53.7852 66.3817C53.7852 62.9829 53.7852 59.5733 53.7852 56.1638C52.309 55.8709 51.9636 55.4486 51.9621 53.9442C51.9621 53.3908 51.9463 52.8359 51.9668 52.2825C52.0046 51.2498 52.615 50.6486 53.667 50.6163C54.3814 50.5947 55.0974 50.5947 55.8119 50.6147C56.8749 50.644 57.4868 51.2344 57.5231 52.264C57.5452 52.8575 57.531 53.454 57.5294 54.049C57.5263 55.4285 57.1493 55.8832 55.7662 56.153C55.7662 57.756 55.7662 59.3622 55.7662 61.1425C56.7882 60.5244 57.7439 60.0203 58.6177 59.4053C61.1301 57.6389 63.1078 55.4054 64.5304 52.7141C64.6645 52.4598 64.7906 52.1978 64.9515 51.9588C65.2543 51.5087 65.7669 51.3716 66.2085 51.5997C66.6738 51.8401 66.8567 52.3503 66.5586 52.8713C65.9057 54.0151 65.2811 55.1881 64.5004 56.2455C62.3602 59.1448 59.6176 61.3675 56.2772 62.8596C55.8529 63.0492 55.692 63.2819 55.7157 63.7413C55.7583 64.5397 55.7062 65.3412 55.7425 66.1397C55.752 66.3385 55.8971 66.6114 56.0658 66.7115C56.8481 67.1771 57.1588 67.8753 57.1935 68.7184C57.2171 69.3119 57.2156 69.9084 57.1935 70.5018C57.143 71.8552 56.2535 72.6906 54.8546 72.7168C54.4618 72.7245 54.0676 72.7184 53.5913 72.7184C53.5913 73.6401 53.5424 74.4987 53.6023 75.3495C53.6906 76.5965 53.249 77.4982 52.0393 77.99C48.8424 78.0007 45.6471 78.0007 42.4502 78.0007ZM70.9321 40.4677C69.9117 39.5275 68.9086 38.6674 69.6152 37.0027C70.3138 35.358 71.6182 35.3688 73.0597 35.4335C73.0597 34.4963 73.0597 33.627 73.0597 32.6837C71.6229 32.7484 70.3202 32.7576 69.6152 31.1191C68.8913 29.4375 69.9495 28.5774 70.8864 27.6942C70.1908 27.0129 69.56 26.3948 68.8976 25.7458C67.9812 26.7323 67.0996 27.6864 65.3884 26.9789C63.704 26.2822 63.7797 24.9828 63.8175 23.6418C62.835 23.6418 61.947 23.6418 60.9913 23.6418C61.1585 25.1616 61.0291 26.4194 59.2769 27.056C57.613 27.6602 56.8323 26.6152 55.9791 25.7767C55.2993 26.4179 54.6416 27.0375 53.9398 27.6988C55.0154 28.5912 55.9176 29.496 55.2331 31.1407C54.547 32.7916 53.2127 32.7422 51.8217 32.6883C51.8217 33.6517 51.8217 34.521 51.8217 35.4489C53.29 35.3518 54.5722 35.3888 55.2536 37.0396C55.9396 38.6997 54.9098 39.5537 53.9272 40.4708C54.6243 41.1428 55.2646 41.7609 55.9191 42.3929C56.7818 41.6423 57.4395 40.5355 58.9757 40.9687C60.8825 41.5066 61.2562 42.8106 60.9881 44.4969C61.9896 44.4969 62.8791 44.4969 63.8349 44.4969C63.745 43.0727 63.756 41.818 65.4389 41.1274C67.1643 40.4184 68.0096 41.4681 68.896 42.3636C69.5931 41.7116 70.2429 41.1089 70.9321 40.4677ZM47.2511 70.8826C49.3298 70.8826 51.41 70.8826 53.4887 70.8826C55.3119 70.8826 55.3119 70.8826 55.3041 69.0976C55.3009 68.2946 55.2851 68.2776 54.4445 68.2776C49.9922 68.2776 45.5399 68.2776 41.0876 68.2776C39.1839 68.2776 39.206 68.2776 39.195 70.1319C39.1918 70.7331 39.411 70.8995 40.0056 70.8934C42.4203 70.8672 44.8365 70.8826 47.2511 70.8826ZM42.8808 75.3048C42.753 76.1511 42.753 76.1526 43.5258 76.1541C46.002 76.1557 48.4797 76.1541 50.9558 76.1541C51.7618 76.1541 51.8012 76.1017 51.5977 75.3048C48.6926 75.3048 45.7843 75.3048 42.8808 75.3048ZM51.6624 72.7754C48.7052 72.7754 45.7796 72.7754 42.8445 72.7754C42.8445 73.0005 42.8445 73.1793 42.8445 73.3781C45.7985 73.3781 48.7226 73.3781 51.6624 73.3781C51.6624 73.153 51.6624 72.9758 51.6624 72.7754ZM43.2703 49.3169C42.8619 48.8853 42.4739 48.4737 42.1143 48.0915C41.6648 48.4938 41.2484 48.8652 40.9109 49.1674C41.3131 49.6175 41.6932 50.0413 42.0638 50.456C42.5086 50.0352 42.9139 49.6544 43.2703 49.3169ZM55.599 52.5107C54.9855 52.5107 54.454 52.5107 53.9114 52.5107C53.9114 53.1133 53.9114 53.6667 53.9114 54.2139C54.5044 54.2139 55.0407 54.2139 55.599 54.2139C55.599 53.6359 55.599 53.0933 55.599 52.5107ZM43.7813 56.2393C43.1962 56.2393 42.6458 56.2393 42.0938 56.2393C42.0938 56.8343 42.0938 57.3892 42.0938 57.9302C42.6852 57.9302 43.2199 57.9302 43.7813 57.9302C43.7813 57.3476 43.7813 56.8081 43.7813 56.2393Z" fill="white"/>
<path d="M48.6264 45.4032C48.6264 47.0818 48.6264 48.7403 48.6264 50.3973C48.6264 50.6023 48.6374 50.8089 48.6185 51.0108C48.5649 51.5934 48.188 51.9526 47.658 51.9449C47.1249 51.9372 46.7496 51.5719 46.7417 50.98C46.7228 49.6698 46.7338 48.358 46.7338 47.0479C46.7338 46.4991 46.7338 45.9504 46.7338 45.4171C45.1093 44.9886 44.8806 44.6941 44.8806 43.0865C44.8806 42.5547 44.8633 42.0214 44.887 41.4896C44.9311 40.4723 45.5793 39.8603 46.6124 39.848C47.3473 39.8387 48.0823 39.8341 48.8172 39.8495C49.7525 39.8696 50.396 40.4738 50.4386 41.3863C50.467 41.9998 50.4496 42.6148 50.4496 43.2298C50.448 44.6787 50.1357 45.0641 48.6264 45.4032ZM46.8158 41.7208C46.8158 42.3296 46.8158 42.8722 46.8158 43.4317C47.4073 43.4317 47.9561 43.4317 48.516 43.4317C48.516 42.8337 48.516 42.2911 48.516 41.7208C47.9356 41.7208 47.3978 41.7208 46.8158 41.7208Z" fill="white"/>
<path d="M36.2191 40.4783C36.2191 40.0483 36.186 39.6167 36.2254 39.1913C36.3027 38.3759 36.9257 37.7978 37.7632 37.7701C38.5596 37.7439 39.3577 37.747 40.1541 37.767C41.0263 37.7901 41.684 38.3682 41.7329 39.2113C41.7818 40.0683 41.7802 40.93 41.7344 41.787C41.6919 42.5916 41.1115 43.1727 40.2882 43.222C39.4318 43.2744 38.5675 43.2744 37.7111 43.2282C36.8547 43.182 36.2838 42.5978 36.216 41.7669C36.1813 41.34 36.2097 40.9084 36.2097 40.4783C36.2144 40.4783 36.216 40.4783 36.2191 40.4783ZM38.1259 41.3585C38.741 41.3585 39.2757 41.3585 39.815 41.3585C39.815 40.7512 39.815 40.1947 39.815 39.6475C39.222 39.6475 38.6858 39.6475 38.1259 39.6475C38.1259 40.2317 38.1259 40.7758 38.1259 41.3585Z" fill="white"/>
<path d="M43.2464 36.164C43.0161 36.164 42.7827 36.1424 42.554 36.1686C41.3285 36.3058 40.398 35.5521 40.5195 34.1602C40.5747 33.5298 40.5163 32.8916 40.5352 32.2581C40.562 31.3656 41.1566 30.7445 42.0603 30.709C42.8773 30.6751 43.6974 30.6766 44.5128 30.7075C45.4102 30.7414 46.0363 31.3549 46.0758 32.2396C46.1105 33.0149 46.1073 33.7949 46.0789 34.5717C46.0442 35.5397 45.3787 36.1455 44.3772 36.164C44.0018 36.1702 43.6233 36.164 43.2464 36.164ZM44.1706 32.5895C43.5634 32.5895 43.0145 32.5895 42.4594 32.5895C42.4594 33.1814 42.4594 33.7209 42.4594 34.2727C43.0476 34.2727 43.5981 34.2727 44.1706 34.2727C44.1706 33.7039 44.1706 33.1799 44.1706 32.5895Z" fill="white"/>
<path d="M46.7387 17.1894C46.7387 16.7609 46.7166 16.3293 46.745 15.9024C46.7797 15.366 47.1739 14.9821 47.666 15.0006C48.1991 15.0207 48.5666 15.3197 48.5934 15.8268C48.6407 16.7424 48.6423 17.6657 48.5902 18.5813C48.5618 19.0884 48.1786 19.3798 47.6503 19.3936C47.1582 19.406 46.7765 19.016 46.7434 18.475C46.7181 18.048 46.7387 17.6179 46.7387 17.1894Z" fill="white"/>
<path d="M19.1618 40.5185C19.9488 40.6141 20.802 40.6988 21.6489 40.8252C22.2025 40.9085 22.5322 41.3277 22.4848 41.801C22.4359 42.2942 21.9802 42.6857 21.4281 42.6364C20.5749 42.5609 19.7232 42.4576 18.8763 42.3297C18.2817 42.2387 17.9395 41.804 18.0089 41.3185C18.0798 40.816 18.5151 40.4954 19.1618 40.5185Z" fill="white"/>
<path d="M31.8884 19.8515C32.0146 19.9455 32.3284 20.0904 32.5098 20.3308C32.9908 20.9721 33.4293 21.6441 33.8583 22.3208C34.1911 22.8464 34.0822 23.3797 33.6264 23.671C33.2038 23.9423 32.6644 23.8375 32.3127 23.352C31.819 22.6691 31.3396 21.9724 30.9074 21.251C30.5115 20.5867 30.95 19.8468 31.8884 19.8515Z" fill="white"/>
<path d="M24.4021 34.2465C24.3785 35.0526 23.7776 35.4935 23.1467 35.2684C22.284 34.9617 21.445 34.5902 20.6186 34.1972C20.147 33.9721 19.994 33.5482 20.1959 33.055C20.3851 32.5941 20.8693 32.3752 21.3898 32.5725C22.2273 32.8885 23.0616 33.2215 23.8596 33.6207C24.1325 33.7579 24.2902 34.1124 24.4021 34.2465Z" fill="white"/>
<path d="M19.427 50.6146C18.8214 50.5945 18.4665 50.3679 18.3703 49.8839C18.2694 49.3737 18.5012 48.9622 19.0154 48.8466C19.9285 48.6385 20.8559 48.4736 21.7864 48.3549C22.3053 48.2886 22.6775 48.5814 22.7674 49.0994C22.8573 49.6157 22.605 50.0072 22.094 50.1229C21.1792 50.3279 20.2487 50.4666 19.427 50.6146Z" fill="white"/>
<path d="M38.3973 17.4467C38.3878 16.7701 38.6007 16.4479 39.0644 16.3215C39.5265 16.1951 39.9602 16.3354 40.1164 16.7624C40.4523 17.681 40.7346 18.6244 40.9712 19.5723C41.0832 20.0193 40.7993 20.3723 40.3482 20.5064C39.9066 20.6374 39.4492 20.5372 39.2805 20.0995C38.924 19.1669 38.6465 18.2067 38.3973 17.4467Z" fill="white"/>
<path d="M25.2933 25.3341C25.615 25.4543 25.8406 25.4867 25.9935 25.6054C26.6828 26.1418 27.3672 26.6875 28.0218 27.2624C28.4334 27.6246 28.4618 28.1703 28.1542 28.5341C27.8136 28.9379 27.2789 29.0057 26.8074 28.6435C26.1308 28.124 25.4415 27.6077 24.847 27.005C24.623 26.7769 24.5284 26.2867 24.6025 25.9661C24.6624 25.7117 25.0646 25.5299 25.2933 25.3341Z" fill="white"/>
<path d="M22.0096 58.6192C21.6737 58.334 21.2715 58.1568 21.21 57.9024C21.1327 57.5849 21.2179 57.0207 21.4419 56.882C22.2998 56.3487 23.2225 55.8971 24.1656 55.524C24.4022 55.43 24.9384 55.6612 25.1009 55.8971C25.2633 56.1329 25.2665 56.7649 25.0993 56.8728C24.1372 57.497 23.1042 58.018 22.0096 58.6192Z" fill="white"/>
<path d="M29.9031 62.4651C29.706 62.781 29.5956 63.0539 29.4016 63.2481C28.8622 63.7891 28.2976 64.307 27.7267 64.8157C27.1983 65.2843 26.6905 65.2997 26.282 64.8943C25.8972 64.512 25.9382 63.9525 26.4192 63.4886C26.9996 62.929 27.5642 62.3433 28.2109 61.8685C28.4711 61.6774 28.9647 61.6435 29.2928 61.736C29.5388 61.8069 29.6902 62.1938 29.9031 62.4651Z" fill="white"/>
<path d="M55.9122 34.0893C55.8901 29.7981 60.0633 26.7415 64.3184 27.9314C65.0218 28.1287 65.3294 28.5696 65.1622 29.1399C65.0092 29.6593 64.5124 29.9029 63.8295 29.7102C62.5031 29.3356 61.2572 29.479 60.0664 30.1495C58.0934 31.2608 57.2496 33.8411 58.1896 35.8866C59.1958 38.08 61.6089 39.1112 63.9573 38.3544C66.0927 37.6654 67.4412 35.3301 66.9586 33.1521C66.9192 32.9718 66.8655 32.7945 66.8324 32.6142C66.7283 32.0408 67.0028 31.583 67.509 31.4689C68.0389 31.3502 68.4963 31.6123 68.6619 32.1672C69.0799 33.5652 69.0688 34.9602 68.5294 36.3274C67.2441 39.5906 63.5456 41.2614 60.2305 40.0884C57.6786 39.1883 55.928 36.7544 55.9122 34.0893Z" fill="white"/>
<path d="M62.3982 37.2832C60.5939 37.2693 59.124 35.8219 59.124 34.0601C59.124 32.2752 60.6302 30.8201 62.4613 30.8371C64.275 30.854 65.726 32.286 65.726 34.0601C65.7276 35.8574 64.2403 37.2971 62.3982 37.2832ZM62.4156 35.432C63.1915 35.4397 63.8129 34.8385 63.8192 34.074C63.8271 33.311 63.2136 32.6929 62.4439 32.6852C61.6853 32.679 61.0355 33.3002 61.0245 34.0463C61.0135 34.7861 61.6538 35.4243 62.4156 35.432Z" fill="white"/>
</svg>
