<svg width="94" height="93" viewBox="0 0 94 93" fill="none" xmlns="http://www.w3.org/2000/svg">
<rect x="0.00195312" width="93" height="93" rx="15" fill="#212222"/>
<path d="M57.2993 18.2543C57.4561 20.5929 56.9752 22.8092 55.9134 24.882C54.4573 27.7239 52.2859 29.7639 49.1229 30.5793C48.5166 30.7361 47.8729 30.7511 47.2487 30.8466C46.7484 30.9243 46.602 30.6764 46.5796 30.2254C46.484 28.2929 46.9515 26.4934 47.8923 24.8238C49.5799 21.828 51.9573 19.6267 55.2846 18.5589C55.652 18.4409 56.0299 18.3543 56.4032 18.2543C56.7034 18.2543 57.0006 18.2543 57.2993 18.2543Z" fill="white"/>
<path d="M69.4518 38.7557C68.4796 39.5218 67.585 40.1864 66.7353 40.9032C64.7894 42.543 63.4364 44.571 63.1452 47.1352C62.6747 51.263 63.9904 54.65 67.5447 57.0096C68.0868 57.3695 68.6573 57.6876 69.1905 58.0609C70.1253 58.7165 70.3389 59.3467 69.9461 60.4115C68.4124 64.5617 66.3814 68.4296 63.3901 71.736C62.4089 72.8202 61.2963 73.7476 60.0105 74.454C57.6255 75.7652 55.1928 75.6114 52.7436 74.6586C52.2075 74.4495 51.6743 74.23 51.1442 74.003C49.2102 73.1786 47.2837 73.0935 45.29 73.8641C43.8743 74.4107 42.4167 74.8751 40.9457 75.25C37.9992 76.0027 35.4873 75.0558 33.2831 73.0965C30.5442 70.6608 28.6924 67.5963 27.1437 64.3332C25.374 60.6042 24.0807 56.7094 23.4879 52.619C22.7964 47.846 23.2071 43.1986 25.71 38.9588C28.204 34.731 32.0256 32.4177 36.8389 31.6591C39.0192 31.3156 41.0383 31.9189 43.0469 32.6313C43.9564 32.9538 44.8734 33.26 45.7784 33.5945C46.6744 33.926 47.5376 33.8992 48.4322 33.5422C49.7419 33.0181 51.0516 32.4625 52.4076 32.0921C57.9093 30.5928 62.8405 31.6531 66.9937 35.6509C67.93 36.5529 68.6304 37.7029 69.4518 38.7557Z" fill="white"/>
</svg>
