<svg width="74" height="74" viewBox="0 0 74 74" fill="none" xmlns="http://www.w3.org/2000/svg">
<rect width="74" height="74" rx="37" fill="#F37024"/>
<path d="M29.0778 35.1471C31.1538 39.608 34.3556 42.8113 38.8136 44.8739C39.56 43.4514 40.2825 42.0738 41.0051 40.6963C41.6241 39.5151 41.7875 39.4116 43.0886 39.638C46.2349 40.1821 49.3813 40.7262 52.5171 41.3303C52.9368 41.4113 53.427 41.756 53.6488 42.1218C55.3217 44.8784 55.4356 47.7534 53.8827 50.5699C52.3462 53.361 49.8894 54.872 46.6861 54.8975C33.4458 55.0054 21.9757 45.5529 19.5054 32.5164C19.0872 30.3144 18.7964 28.081 19.1771 25.8355C20.1514 20.093 26.9762 17.1085 31.8509 20.3088C32.2106 20.5442 32.5344 21.0373 32.6153 21.46C33.2464 24.7323 33.816 28.018 34.3991 31.2992C34.5235 32.0008 34.1908 32.4519 33.5867 32.7637C32.3021 33.4263 31.0219 34.1008 29.7418 34.7723C29.538 34.8803 29.3416 34.9987 29.0778 35.1471ZM46.0985 52.5126C50.6974 52.6505 53.8122 48.287 52.015 44.1933C51.898 43.9265 51.5833 43.6162 51.3134 43.5653C48.7502 43.0691 46.178 42.6269 43.6088 42.1607C43.1905 42.0843 42.9312 42.1757 42.7229 42.5954C42.0603 43.9325 41.3513 45.2471 40.6573 46.5692C40.0757 47.6769 39.6575 47.8388 38.5273 47.3697C32.8522 45.0103 28.8604 40.9736 26.522 35.297C26.1263 34.3376 26.3137 33.8415 27.243 33.3528C28.5846 32.6468 29.9187 31.9243 31.2813 31.2618C31.7534 31.0324 31.8599 30.7596 31.7714 30.2784C31.3022 27.7347 30.8645 25.1835 30.3834 22.6427C30.3369 22.3969 30.1166 22.0941 29.8932 21.9832C26.4561 20.2818 22.0911 22.5558 21.5485 26.3601C21.2067 28.754 21.6099 31.1134 22.187 33.4278C24.9421 44.4871 34.582 52.1664 46.0985 52.5126Z" fill="white"/>
</svg>
