<svg width="93" height="93" viewBox="0 0 93 93" fill="none" xmlns="http://www.w3.org/2000/svg">
<rect width="93" height="93" rx="15" fill="#00B132"/>
<path d="M69.5287 75.3301C54.3 75.3301 39.0713 75.3301 23.8411 75.3301C23.7214 75.2912 23.6033 75.2434 23.4792 75.2164C21.1985 74.7214 19.5445 73.4308 18.5859 71.2997C18.3301 70.7314 18.203 70.1063 18.0176 69.5081C18.0176 68.1278 18.0176 66.7459 18.0176 65.3656C18.3361 64.4877 18.9209 63.9299 19.9258 63.8461C19.9258 63.5919 19.9258 63.3721 19.9258 63.1522C19.9258 52.0152 19.9243 40.8782 19.9273 29.7412C19.9273 26.7427 21.9463 24.7133 24.9373 24.7058C27.9043 24.6984 30.8699 24.7043 33.837 24.7043C34.0404 24.7043 34.2438 24.7043 34.3425 24.7043C34.6057 24.1884 34.7642 23.6949 35.0693 23.3225C35.5523 22.7348 36.1236 22.2158 36.6785 21.6894C37.3679 21.0344 38.2248 20.9417 39.0414 21.4307C39.5214 21.7178 40.0089 22.0065 40.4352 22.3609C41.1051 22.9187 41.7377 23.1311 42.5722 22.6376C42.9312 22.4252 43.142 22.2502 43.2138 21.8479C43.3469 21.0957 43.5054 20.3479 43.6714 19.6032C43.8943 18.6057 44.6016 18.0254 45.6171 18.009C46.3259 17.997 47.0348 17.997 47.7437 18.009C48.7606 18.0254 49.474 18.6057 49.6968 19.5957C49.812 20.1042 49.975 20.6141 49.9959 21.1286C50.0348 22.0932 50.467 22.645 51.4107 22.8813C51.7232 22.9591 51.9401 23.0129 52.2197 22.817C52.8912 22.3459 53.5821 21.9033 54.273 21.4621C54.946 21.0314 55.7207 20.9192 56.3174 21.4322C57.3702 22.3385 58.619 23.1311 58.9286 24.7043C59.123 24.7043 59.3249 24.7043 59.5268 24.7043C62.4564 24.7043 65.3861 24.7013 68.3143 24.7073C68.7226 24.7088 69.1413 24.7088 69.5391 24.7866C71.9065 25.2502 73.4394 27.1734 73.4409 29.6799C73.4454 40.8348 73.4424 51.9913 73.4424 63.1462C73.4424 63.381 73.4424 63.6173 73.4424 63.8357C74.8033 64.0944 75.3477 64.7494 75.3492 66.0475C75.3507 66.9433 75.3581 67.8391 75.3462 68.7334C75.3103 71.4702 73.577 73.9363 71.0122 74.8844C70.5307 75.0654 70.0252 75.1835 69.5287 75.3301ZM71.5356 63.8402C71.5356 63.5889 71.5356 63.3706 71.5356 63.1522C71.5356 52.069 71.5356 40.9844 71.5356 29.9012C71.5356 29.7143 71.5401 29.5273 71.5282 29.3419C71.4354 27.8344 70.2645 26.6365 68.7794 26.6261C65.271 26.6006 61.7625 26.6111 58.2541 26.6276C58.0746 26.6291 57.8608 26.7801 57.7232 26.9207C57.0188 27.643 56.7855 28.4461 57.4345 29.3269C57.5691 29.5109 57.7725 29.7098 57.9804 29.7636C58.8104 29.9775 59.6584 30.1181 60.4899 30.32C61.3513 30.5293 61.8911 31.135 61.942 32.0173C61.9913 32.8533 61.9913 33.6968 61.9465 34.5328C61.8971 35.4495 61.3647 36.0477 60.4719 36.2721C59.9485 36.4037 59.4191 36.5517 58.8837 36.5921C57.9325 36.6639 57.3104 37.0422 57.0846 38.0293C57.0113 38.3478 56.9874 38.5721 57.1758 38.8458C57.6424 39.5203 58.0956 40.2052 58.5248 40.9036C59.0377 41.7396 58.9435 42.607 58.272 43.3159C57.771 43.8438 57.2551 44.3567 56.7287 44.8607C55.9869 45.5726 55.106 45.6533 54.2267 45.097C53.7691 44.8084 53.289 44.5407 52.8837 44.1907C52.2212 43.6195 51.5931 43.4998 50.793 43.9515C50.4296 44.1563 50.2217 44.3358 50.1514 44.7396C50.0213 45.4918 49.8613 46.2396 49.6938 46.9843C49.4695 47.9833 48.7621 48.5576 47.7452 48.5726C47.0363 48.583 46.3259 48.583 45.6171 48.5726C44.5971 48.5576 43.8868 47.9774 43.6669 46.9858C43.5578 46.4953 43.3918 46.0018 43.3828 45.5068C43.3619 44.451 42.8265 43.8812 41.8454 43.6748C41.6555 43.6344 41.4042 43.6374 41.2487 43.7316C40.5159 44.1758 39.8145 44.6738 39.0847 45.1239C38.2188 45.6563 37.3634 45.5576 36.6321 44.8547C36.1072 44.3508 35.5897 43.8393 35.0872 43.3114C34.4128 42.6025 34.326 41.7381 34.836 40.9006C35.1082 40.455 35.3609 39.9824 35.7109 39.604C36.3988 38.8638 36.5035 38.1055 35.9352 37.2785C35.8051 37.0901 35.6077 36.8777 35.4028 36.8239C34.6281 36.6235 33.834 36.4964 33.0534 36.3199C31.9676 36.0746 31.4292 35.4211 31.3949 34.31C31.3754 33.6953 31.3859 33.0792 31.3919 32.463C31.4023 31.135 31.9602 30.471 33.2568 30.2227C33.9881 30.0822 34.7208 29.9401 35.4477 29.7801C35.5927 29.7487 35.7842 29.6649 35.8425 29.5483C36.2478 28.7482 36.6605 27.9331 35.7976 27.151C35.7707 27.1271 35.7483 27.0927 35.7333 27.0598C35.5733 26.6754 35.2832 26.6036 34.8854 26.6051C31.6012 26.6216 28.3156 26.6126 25.0315 26.6156C22.9841 26.6171 21.8326 27.7597 21.8326 29.7935C21.8311 40.9335 21.8326 52.0735 21.8326 63.212C21.8326 63.4109 21.8326 63.6098 21.8326 63.8402C38.4252 63.8402 54.949 63.8402 71.5356 63.8402ZM19.9572 65.8142C19.9572 66.9837 19.8541 68.0949 19.9782 69.1791C20.2728 71.7484 22.2887 73.4218 24.9627 73.4233C39.4407 73.4263 53.9201 73.4248 68.3981 73.4248C68.5656 73.4248 68.7346 73.4248 68.9021 73.4159C71.0332 73.3037 72.9534 71.7588 73.2958 69.6846C73.5022 68.4313 73.4379 67.1332 73.4977 65.8247C68.0077 65.8247 62.6299 65.8247 57.2012 65.8247C57.2012 66.1537 57.2072 66.4498 57.1997 66.7444C57.1474 68.8725 55.5577 70.5191 53.4341 70.534C48.9371 70.5639 44.4416 70.5609 39.9446 70.5355C38.0169 70.525 36.5469 69.2165 36.2313 67.3097C36.1505 66.8222 36.1595 66.3197 36.1281 65.8172C30.7234 65.8142 25.356 65.8142 19.9572 65.8142ZM45.5603 19.9352C45.3748 20.8504 45.1879 21.7597 45.0069 22.6705C44.8559 23.4257 44.4341 23.9476 43.7103 24.2258C43.311 24.3798 42.9087 24.5309 42.5229 24.7148C41.7258 25.0947 40.9855 25.0423 40.2572 24.5324C39.5274 24.0209 38.7737 23.5438 38.1545 23.1326C37.5713 23.6919 37.0404 24.2033 36.49 24.7313C36.9536 25.4267 37.4307 26.1625 37.9287 26.8818C38.4177 27.5892 38.4955 28.3145 38.1156 29.0951C37.9452 29.4451 37.7881 29.807 37.667 30.1779C37.3873 31.0288 36.7981 31.4894 35.9352 31.6509C35.1845 31.7915 34.4322 31.9321 33.6919 32.1161C33.5409 32.1534 33.3435 32.3748 33.33 32.5258C33.2852 33.0448 33.2897 33.5712 33.3285 34.0901C33.339 34.2292 33.5185 34.4341 33.6575 34.47C34.2886 34.633 34.9257 34.7945 35.5703 34.8678C36.7742 35.0054 37.513 35.629 37.818 36.794C37.8749 37.0078 37.9736 37.2142 38.0783 37.4101C38.5179 38.2371 38.4372 39.0103 37.8988 39.7715C37.3963 40.4819 36.9297 41.2177 36.4706 41.9071C37.0254 42.4664 37.5354 42.9809 38.0723 43.5222C38.5852 43.1798 39.1595 42.8597 39.6605 42.45C40.7298 41.5751 41.8275 41.3508 43.0478 42.1135C43.2183 42.2197 43.4277 42.2645 43.6206 42.3333C44.4117 42.6145 44.8693 43.1633 45.0204 43.9933C45.1834 44.8847 45.3808 45.77 45.5603 46.6434C46.3439 46.6434 47.0647 46.6434 47.8125 46.6434C47.9994 45.7102 48.1804 44.7979 48.3673 43.8872C48.5184 43.1573 48.9281 42.6459 49.6355 42.3752C50.0527 42.2167 50.4715 42.0552 50.8738 41.8622C51.6529 41.4899 52.3797 41.5482 53.0916 42.0372C53.8274 42.5442 54.5766 43.0317 55.2421 43.4759C55.8074 42.933 56.3413 42.4231 56.8977 41.8907C56.4879 41.2745 56.0991 40.6135 55.634 40.0123C54.9251 39.0956 54.9969 38.2312 55.3618 37.1499C55.8837 35.6006 56.8229 34.8708 58.3932 34.7451C58.9375 34.7018 59.6972 34.6659 59.9455 34.3249C60.2252 33.9421 60.0382 33.2182 60.0547 32.6425C60.0562 32.6051 60.0696 32.5557 60.0517 32.5333C59.9335 32.3852 59.8318 32.1519 59.6823 32.1146C58.942 31.9321 58.1898 31.793 57.439 31.6539C56.5776 31.4939 55.9794 31.0438 55.6998 30.1898C55.5846 29.8369 55.4455 29.487 55.275 29.1579C54.8548 28.3444 54.9296 27.5892 55.45 26.8459C55.951 26.131 56.4221 25.3953 56.8857 24.6984C56.3309 24.151 55.8059 23.6336 55.2571 23.0922C54.7127 23.4556 54.0936 23.8115 53.5417 24.2497C52.5562 25.0333 51.5542 25.2038 50.4461 24.5309C50.2277 24.3978 49.9615 24.3409 49.7177 24.2512C48.9521 23.9715 48.4989 23.4376 48.3479 22.6301C48.1804 21.7343 47.9875 20.843 47.802 19.9382C47.0513 19.9352 46.3289 19.9352 45.5603 19.9352ZM38.1396 65.8052C37.8255 67.4847 38.6361 68.6886 40.4785 68.6572C44.6704 68.5839 48.8653 68.5944 53.0572 68.6557C54.5422 68.6781 55.634 67.5909 55.2047 65.8052C49.5278 65.8052 43.8464 65.8052 38.1396 65.8052Z" fill="white"/>
<path d="M32.3274 61.9559C27.5657 61.9304 23.7208 58.0556 23.7447 53.3059C23.7702 48.5606 27.6555 44.7381 32.4291 44.7636C37.1444 44.789 40.9864 48.6818 40.958 53.4061C40.9296 58.1229 37.0353 61.9798 32.3274 61.9559ZM32.3439 60.0386C36.0273 60.0416 39.0527 57.0207 39.0467 53.3462C39.0407 49.6897 36.0393 46.6823 32.3828 46.6703C28.6964 46.6584 25.668 49.6583 25.653 53.3358C25.641 57.0117 28.659 60.0341 32.3439 60.0386Z" fill="white"/>
<path d="M61.0293 61.9556C56.314 61.9676 52.4317 58.1107 52.4107 53.3924C52.3898 48.6457 56.2542 44.7648 61.0069 44.7618C65.7416 44.7589 69.6 48.5888 69.624 53.3161C69.6479 58.0599 65.785 61.9437 61.0293 61.9556ZM61.0054 60.0384C64.6918 60.0489 67.7172 57.0339 67.7142 53.355C67.7112 49.697 64.7127 46.6851 61.0607 46.6701C57.3758 46.6551 54.3399 49.6551 54.322 53.3296C54.304 57.0055 57.316 60.0279 61.0054 60.0384Z" fill="white"/>
<path d="M30.9083 67.6999C31.3928 67.6999 31.8789 67.6849 32.3634 67.7044C32.9152 67.7268 33.2846 68.1067 33.2951 68.6196C33.3056 69.1326 32.9556 69.5663 32.4083 69.5857C31.4212 69.6216 30.4312 69.6216 29.4442 69.5887C28.8774 69.5693 28.511 69.1117 28.5424 68.5807C28.5723 68.0678 28.9402 67.7208 29.51 67.7014C29.9751 67.6864 30.4417 67.6999 30.9083 67.6999Z" fill="white"/>
<path d="M23.7341 69.5976C23.2091 69.5857 22.8009 69.1445 22.8158 68.6076C22.8323 68.0662 23.254 67.6789 23.8014 67.7028C24.3053 67.7253 24.7151 68.153 24.7091 68.6495C24.7032 69.1639 24.244 69.6111 23.7341 69.5976Z" fill="white"/>
<path d="M27.5585 68.6512C27.5555 69.1806 27.1158 69.6143 26.5969 69.6008C26.0839 69.5874 25.6443 69.1193 25.6637 68.6093C25.6846 68.1083 26.1034 67.7075 26.6104 67.703C27.1562 67.7 27.563 68.1068 27.5585 68.6512Z" fill="white"/>
<path d="M54.3174 33.293C54.3174 37.5208 50.8867 40.9545 46.6709 40.944C42.4535 40.9335 39.0408 37.4924 39.0528 33.2616C39.0632 29.0592 42.473 25.6495 46.6724 25.6405C50.8897 25.633 54.3174 29.0637 54.3174 33.293ZM52.4061 33.3154C52.4166 30.151 49.8697 27.5772 46.7067 27.5563C43.5647 27.5353 40.9715 30.1166 40.9625 33.2721C40.9536 36.4351 43.5034 39.0118 46.6634 39.0312C49.8084 39.0507 52.3956 36.4754 52.4061 33.3154Z" fill="white"/>
<path d="M30.4077 54.9269C32.0393 53.2893 33.5782 51.746 35.117 50.2026C35.2217 50.0964 35.3249 49.9888 35.4341 49.8871C35.8947 49.4638 36.4421 49.4339 36.8309 49.8078C37.2451 50.2086 37.2407 50.7694 36.7711 51.2435C35.2367 52.7928 33.6888 54.3302 32.147 55.8706C31.818 56.1996 31.4979 56.5391 31.154 56.8546C30.6724 57.2958 30.1923 57.2958 29.7183 56.8412C29.0991 56.2474 28.492 55.6418 27.8997 55.0226C27.4945 54.5994 27.4945 54.0461 27.8579 53.6677C28.2392 53.2714 28.8075 53.2639 29.2487 53.6916C29.6345 54.067 29.9875 54.4768 30.4077 54.9269Z" fill="white"/>
<path d="M61.0175 54.6742C60.2743 55.4279 59.5938 56.1413 58.8879 56.8277C58.3271 57.3736 57.551 57.2479 57.2788 56.5839C57.0918 56.1263 57.2578 55.7539 57.5928 55.4264C58.2838 54.7504 58.9702 54.07 59.6985 53.3521C58.9881 52.6523 58.3226 52.0017 57.6661 51.3467C57.1277 50.8098 57.0679 50.2609 57.4896 49.8347C57.9024 49.419 58.4856 49.4713 59.0091 49.9962C59.6641 50.6543 60.3042 51.3257 61.0071 52.0511C61.7458 51.3003 62.4263 50.6169 63.0963 49.9245C63.3954 49.6149 63.7453 49.4833 64.1581 49.5999C64.8595 49.7973 65.0479 50.6483 64.4961 51.2181C63.8081 51.9254 63.0888 52.6014 62.3246 53.3492C63.0709 54.082 63.7872 54.7594 64.4721 55.4653C65.0434 56.053 64.8939 56.8367 64.194 57.0999C63.7708 57.2584 63.4283 57.1163 63.1322 56.8157C62.4502 56.1263 61.7698 55.4354 61.0175 54.6742Z" fill="white"/>
</svg>
