<svg width="35" height="35" viewBox="0 0 35 35" fill="none" xmlns="http://www.w3.org/2000/svg">
<path d="M15.6568 0C16.2636 0.0886364 16.8727 0.154545 17.475 0.268182C20.1205 0.761364 22.4477 1.91364 24.4614 3.7C26.75 5.72955 28.3227 8.21364 29.0227 11.1909C30.0932 15.7477 29.2114 19.9227 26.4091 23.6841C26.3023 23.8273 26.1932 23.9727 26.0136 24.2159C26.1341 24.2932 26.2682 24.35 26.3636 24.4432C29.0659 27.1386 31.7614 29.8386 34.4614 32.5341C34.875 32.9477 35.1159 33.4045 34.9454 34.0045C34.6795 34.9432 33.5818 35.3068 32.8114 34.7068C32.6864 34.6091 32.5727 34.4955 32.4614 34.3818C29.8023 31.725 27.1432 29.0682 24.4864 26.4091C24.3818 26.3045 24.2955 26.1818 24.1795 26.0409C23.9841 26.1864 23.8295 26.2955 23.6795 26.4114C20.8364 28.5864 17.6091 29.6045 14.05 29.4409C10.0341 29.2545 6.64318 27.6364 3.90227 24.6864C1.86364 22.4864 0.631818 19.8932 0.165909 16.9341C0.0977273 16.5091 0.0545454 16.0818 0 15.6568C0 15.0409 0 14.4273 0 13.8114C0.0204545 13.7023 0.0431818 13.5932 0.0613636 13.4841C0.193182 12.6886 0.272727 11.8795 0.468182 11.1C1.19545 8.20227 2.70682 5.76818 4.925 3.77273C6.96364 1.93864 9.32727 0.756818 12.025 0.261364C12.6159 0.152273 13.2159 0.0863636 13.8114 0C14.425 0 15.0409 0 15.6568 0ZM26.7364 14.7205C26.7182 8.10454 21.3295 2.72273 14.7273 2.72727C8.11818 2.73409 2.73409 8.11818 2.72727 14.7273C2.72045 21.3409 8.14773 26.7614 14.7523 26.7341C21.3773 26.7091 26.7523 21.3182 26.7364 14.7205Z" fill="black"/>
</svg>
