<svg width="94" height="93" viewBox="0 0 94 93" fill="none" xmlns="http://www.w3.org/2000/svg">
<rect x="0.00195312" width="93" height="93" rx="15" fill="#808080"/>
<path d="M25.0568 42.9005C25.3097 42.9652 25.5421 43.0137 25.7671 43.0829C27.3582 43.5711 28.3567 44.9387 28.3626 46.7004C28.3758 50.0576 28.3743 53.4163 28.364 56.7736C28.3567 59.4235 26.3215 61.0882 23.7098 60.6029C21.2143 60.1382 19.2599 58.2794 19.0776 55.7486C18.8879 53.1237 18.9305 50.4679 19.0673 47.8356C19.1658 45.9372 20.2996 44.5372 21.9569 43.6108C22.276 43.4328 22.3804 43.2461 22.401 42.8946C23.001 32.3053 30.4787 23.2923 40.7784 20.7247C53.9426 17.4425 67.3055 25.6246 70.3245 38.8477C70.6333 40.1991 70.7068 41.6035 70.9215 42.9784C70.9539 43.1873 71.1083 43.449 71.2847 43.552C73.27 44.699 74.2964 46.4077 74.3258 48.6886C74.3523 50.762 74.3538 52.8355 74.3258 54.9089C74.2949 57.1662 73.2862 58.8779 71.3083 59.9911C71.023 60.1514 70.9362 60.3235 70.9318 60.6338C70.9142 61.9528 70.998 63.2896 70.8068 64.5866C70.2407 68.4262 66.9437 71.229 63.0321 71.3084C61.8012 71.3334 60.5689 71.3246 59.3366 71.3084C59.0366 71.304 58.8969 71.3996 58.7587 71.6731C57.9955 73.1863 56.7529 73.9672 55.047 73.9775C53.7235 73.9848 52.3986 73.9907 51.0751 73.9745C48.8252 73.9466 47.1135 72.2819 47.0458 70.0761C46.9796 67.9262 48.6105 66.1307 50.8369 66.0174C52.3398 65.941 53.8529 65.9571 55.3573 66.0145C56.947 66.0748 58.0749 66.8997 58.7866 68.3144C58.8616 68.4629 59.0498 68.6556 59.1837 68.6556C60.7086 68.6512 62.2439 68.7203 63.7541 68.56C66.2334 68.2982 68.1981 66.0542 68.2746 63.5601C68.304 62.6087 68.279 61.6573 68.279 60.6882C68.0099 60.622 67.7599 60.5735 67.5187 60.4985C66.029 60.0411 64.9614 58.7103 64.9482 57.1471C64.9188 53.5693 64.9158 49.9915 64.9497 46.4136C64.9658 44.7666 66.1349 43.4196 67.751 43.024C67.9084 42.9858 68.0628 42.9373 68.2113 42.8961C67.729 32.5817 59.2204 23.185 47.6384 22.6791C35.4594 22.1497 25.7568 31.5347 25.0568 42.9005ZM67.579 51.8105C67.579 53.4796 67.5731 55.1486 67.5819 56.8177C67.5863 57.7059 68.0069 58.078 68.8966 58.0206C70.3804 57.9236 71.6362 56.656 71.6671 55.1031C71.7097 52.9031 71.7068 50.7003 71.6686 48.5003C71.6421 46.971 70.4215 45.6945 68.9701 45.5651C68.0157 45.4798 67.5849 45.8563 67.5805 46.8033C67.5746 48.4724 67.579 50.1415 67.579 51.8105ZM25.7171 51.784C25.7171 50.0973 25.7244 48.4092 25.7141 46.7224C25.7082 45.9034 25.2862 45.524 24.4656 45.5578C22.9422 45.6195 21.6496 46.9298 21.626 48.5253C21.5922 50.7076 21.5922 52.8914 21.6275 55.0722C21.651 56.6001 22.8642 57.8824 24.3156 58.0133C25.2965 58.1015 25.7141 57.728 25.7171 56.7368C25.7215 55.0869 25.7171 53.4355 25.7171 51.784ZM53.0956 71.3364C53.7574 71.3364 54.4191 71.3452 55.0808 71.3334C55.9117 71.3187 56.4734 70.7923 56.4926 70.0305C56.5132 69.235 55.9661 68.66 55.1117 68.6453C53.7691 68.6247 52.4265 68.6247 51.0854 68.6453C50.2531 68.6585 49.6972 69.2144 49.6943 69.9702C49.6913 70.7584 50.2619 71.3173 51.1089 71.332C51.7721 71.3452 52.4339 71.3364 53.0956 71.3364Z" fill="white"/>
<path d="M38.172 55.4648C37.0588 55.4148 36.0471 55.1854 35.1427 54.606C33.3575 53.4634 32.4752 51.8179 32.4663 49.7179C32.4502 45.9931 32.4281 42.2682 32.4722 38.5448C32.5105 35.1949 34.9104 32.8552 38.2603 32.8464C43.8498 32.8317 49.4393 32.8332 55.0274 32.8464C58.3802 32.8538 60.7802 35.1831 60.8228 38.5359C60.8699 42.2785 60.8743 46.0225 60.8213 49.7635C60.7743 53.1325 58.3493 55.4413 54.9583 55.4531C52.7333 55.4604 50.5084 55.4619 48.285 55.4472C47.9232 55.4442 47.6717 55.556 47.4203 55.8089C45.8909 57.3442 44.3557 58.875 42.8013 60.3853C42.0234 61.1411 41.0734 61.3411 40.0485 60.9926C39.025 60.6441 38.4044 59.9088 38.2309 58.8382C38.1676 58.4427 38.1765 58.0353 38.172 57.6324C38.1662 56.9207 38.172 56.2089 38.172 55.4648ZM40.822 58.4074C40.8661 58.4324 40.9117 58.4559 40.9558 58.4809C41.0984 58.3486 41.2455 58.2206 41.3852 58.0839C42.9366 56.5457 44.4998 55.0178 46.0306 53.4605C46.4909 52.9928 46.9879 52.7958 47.6438 52.8031C50.0334 52.8281 52.4216 52.8134 54.8112 52.8134C57.0009 52.812 58.1876 51.6341 58.1891 49.4532C58.192 45.9137 58.192 42.3741 58.1891 38.8345C58.1876 36.6478 57.0126 35.4875 54.8068 35.4875C49.3673 35.4875 43.9263 35.4875 38.4867 35.4875C36.2824 35.4875 35.1133 36.6478 35.1118 38.8403C35.1089 42.3799 35.1104 45.9195 35.1133 49.4591C35.1133 49.6974 35.1207 49.9371 35.1471 50.1723C35.2942 51.4944 36.2471 52.5311 37.5647 52.7384C38.0868 52.8208 38.625 52.8061 39.1573 52.812C40.3823 52.8252 40.8205 53.2502 40.822 54.4634C40.8234 55.7766 40.822 57.0912 40.822 58.4074Z" fill="white"/>
<path d="M46.6493 46.3076C45.5846 46.3091 44.6817 45.4018 44.6905 44.3415C44.6993 43.2768 45.614 42.3842 46.6757 42.4019C47.7242 42.4195 48.5977 43.296 48.608 44.34C48.6183 45.3974 47.7139 46.3076 46.6493 46.3076Z" fill="white"/>
<path d="M42.1601 44.3283C42.1733 45.4092 41.3043 46.3003 40.2293 46.3077C39.1617 46.3165 38.2661 45.4253 38.2661 44.3533C38.2661 43.3019 39.119 42.4313 40.1763 42.4019C41.244 42.374 42.1469 43.2504 42.1601 44.3283Z" fill="white"/>
<path d="M51.1378 44.3739C51.1289 43.2915 51.9995 42.4063 53.0759 42.4019C54.145 42.3989 55.0376 43.293 55.0332 44.3621C55.0288 45.4106 54.1685 46.2826 53.1142 46.3062C52.0466 46.3326 51.1466 45.4518 51.1378 44.3739Z" fill="white"/>
</svg>
