<svg width="94" height="93" viewBox="0 0 94 93" fill="none" xmlns="http://www.w3.org/2000/svg">
<rect x="0.00195312" width="93" height="93" rx="15" fill="#FFB93E"/>
<path d="M52.5013 59.0316C52.5013 61.0964 52.5013 63.0887 52.5013 65.1359C52.6485 65.1359 52.7828 65.1359 52.9171 65.1359C55.1792 65.1359 57.4425 65.1324 59.7046 65.1371C60.9484 65.1406 61.9562 65.9044 62.2283 67.0314C62.6044 68.5858 61.4949 70.0549 59.8844 70.1332C59.8039 70.1367 59.7221 70.1367 59.6404 70.1367C50.6479 70.1367 41.6555 70.1367 32.6619 70.1367C31.487 70.1367 30.5808 69.5621 30.1791 68.5694C29.5064 66.9099 30.7174 65.15 32.5568 65.1395C34.8189 65.1266 37.0822 65.1359 39.3443 65.1359C39.4821 65.1359 39.6188 65.1359 39.7811 65.1359C39.7811 63.1062 39.7811 61.1057 39.7811 59.069C39.6188 59.062 39.4623 59.048 39.3046 59.048C33.3054 59.0468 27.3061 59.0444 21.3081 59.0491C20.4766 59.0503 19.721 58.8716 19.1114 58.2678C18.5648 57.726 18.2974 57.0661 18.2974 56.2977C18.2985 53.3278 18.2985 50.358 18.2985 47.387C18.2985 39.9384 18.2985 32.4887 18.2985 25.039C18.2985 23.23 19.4208 22.1066 21.2298 22.1066C37.8343 22.1066 54.4388 22.1066 71.0432 22.1066C72.8826 22.1066 73.9979 23.2172 73.9979 25.0495C73.9979 35.4341 73.9979 45.8197 73.9979 56.2042C73.9979 57.6057 73.1711 58.6836 71.8689 58.9627C71.5781 59.0246 71.2698 59.0281 70.9697 59.0281C64.9821 59.0316 58.9945 59.0304 53.0082 59.0304C52.847 59.0316 52.6882 59.0316 52.5013 59.0316Z" fill="white"/>
</svg>
